<svg width="352" height="63" viewBox="0 0 352 63" fill="none" xmlns="http://www.w3.org/2000/svg">
<g filter="url(#filter0_dd_1_464)">
<rect x="3.84595" y="3.53711" width="345" height="54" rx="10" fill="white"/>
<rect x="45.8459" y="3.53711" width="261" height="54" rx="10" fill="white"/>
<rect width="24" height="24" transform="translate(60.8459 18.5371)" fill="white"/>
<path fill-rule="evenodd" clip-rule="evenodd" d="M83.8859 30.7985C83.8859 29.983 83.8128 29.199 83.6769 28.4462H72.8459V32.8946H79.035C78.7684 34.3321 77.9582 35.5501 76.7403 36.3655V39.251H80.4569C82.6314 37.249 83.8859 34.3008 83.8859 30.7985Z" fill="#4285F4"/>
<path fill-rule="evenodd" clip-rule="evenodd" d="M72.8458 42.0369C75.9508 42.0369 78.554 41.0072 80.4568 39.2508L76.7402 36.3653C75.7104 37.0553 74.3931 37.4631 72.8458 37.4631C69.8506 37.4631 67.3154 35.4401 66.4111 32.7219H62.569V35.7015C64.4613 39.4599 68.3504 42.0369 72.8458 42.0369Z" fill="#34A853"/>
<path fill-rule="evenodd" clip-rule="evenodd" d="M66.4112 32.7222C66.1812 32.0322 66.0505 31.2951 66.0505 30.5372C66.0505 29.7792 66.1812 29.0422 66.4112 28.3522V25.3726H62.5691C61.7903 26.9251 61.3459 28.6815 61.3459 30.5372C61.3459 32.3928 61.7903 34.1492 62.5691 35.7017L66.4112 32.7222Z" fill="#FBBC05"/>
<path fill-rule="evenodd" clip-rule="evenodd" d="M72.8458 23.611C74.5343 23.611 76.0502 24.1912 77.242 25.3307L80.5404 22.0323C78.5488 20.1767 75.9456 19.0371 72.8458 19.0371C68.3504 19.0371 64.4613 21.6142 62.569 25.3726L66.4111 28.3521C67.3154 25.6339 69.8506 23.611 72.8458 23.611Z" fill="#EA4335"/>
<path d="M112.141 31.9082C111.998 33.4251 111.438 34.61 110.461 35.4629C109.485 36.3092 108.186 36.7324 106.565 36.7324C105.432 36.7324 104.433 36.4655 103.567 35.9316C102.707 35.3913 102.043 34.6263 101.574 33.6367C101.106 32.6471 100.862 31.498 100.842 30.1895V28.8613C100.842 27.5202 101.08 26.3385 101.555 25.3164C102.03 24.2943 102.711 23.5065 103.596 22.9531C104.488 22.3997 105.517 22.123 106.682 22.123C108.251 22.123 109.514 22.5495 110.471 23.4023C111.428 24.2552 111.985 25.4596 112.141 27.0156H109.68C109.563 25.9935 109.263 25.2578 108.781 24.8086C108.306 24.3529 107.606 24.125 106.682 24.125C105.608 24.125 104.781 24.5189 104.201 25.3066C103.628 26.0879 103.336 27.237 103.323 28.7539V30.0137C103.323 31.5501 103.596 32.722 104.143 33.5293C104.696 34.3366 105.503 34.7402 106.565 34.7402C107.535 34.7402 108.264 34.5221 108.752 34.0859C109.24 33.6497 109.55 32.9238 109.68 31.9082H112.141ZM113.684 31.1562C113.684 30.1211 113.889 29.1901 114.299 28.3633C114.709 27.5299 115.285 26.8919 116.028 26.4492C116.77 26 117.623 25.7754 118.586 25.7754C120.012 25.7754 121.168 26.2344 122.053 27.1523C122.945 28.0703 123.427 29.2878 123.498 30.8047L123.508 31.3613C123.508 32.403 123.306 33.334 122.903 34.1543C122.505 34.9746 121.933 35.6094 121.184 36.0586C120.442 36.5078 119.582 36.7324 118.606 36.7324C117.115 36.7324 115.92 36.2376 115.022 35.248C114.13 34.252 113.684 32.9271 113.684 31.2734V31.1562ZM116.057 31.3613C116.057 32.4486 116.281 33.3014 116.731 33.9199C117.18 34.5319 117.805 34.8379 118.606 34.8379C119.406 34.8379 120.028 34.5254 120.471 33.9004C120.92 33.2754 121.145 32.3607 121.145 31.1562C121.145 30.0885 120.914 29.2422 120.451 28.6172C119.996 27.9922 119.374 27.6797 118.586 27.6797C117.811 27.6797 117.196 27.9889 116.74 28.6074C116.285 29.2194 116.057 30.1374 116.057 31.3613ZM127.717 25.9707L127.785 27.1914C128.567 26.2474 129.592 25.7754 130.862 25.7754C133.062 25.7754 134.182 27.0352 134.221 29.5547V36.5371H131.848V29.6914C131.848 29.0208 131.701 28.526 131.408 28.207C131.122 27.8815 130.65 27.7188 129.992 27.7188C129.035 27.7188 128.323 28.1517 127.854 29.0176V36.5371H125.481V25.9707H127.717ZM139.621 23.4023V25.9707H141.487V27.7285H139.621V33.627C139.621 34.0306 139.699 34.3236 139.856 34.5059C140.018 34.6816 140.305 34.7695 140.715 34.7695C140.989 34.7695 141.265 34.737 141.545 34.6719V36.5078C141.005 36.6576 140.484 36.7324 139.983 36.7324C138.16 36.7324 137.248 35.7266 137.248 33.7148V27.7285H135.51V25.9707H137.248V23.4023H139.621ZM145.832 36.5371H143.459V25.9707H145.832V36.5371ZM143.313 23.2266C143.313 22.862 143.427 22.5592 143.655 22.3184C143.889 22.0775 144.221 21.957 144.651 21.957C145.08 21.957 145.412 22.0775 145.647 22.3184C145.881 22.5592 145.998 22.862 145.998 23.2266C145.998 23.5846 145.881 23.8841 145.647 24.125C145.412 24.3594 145.08 24.4766 144.651 24.4766C144.221 24.4766 143.889 24.3594 143.655 24.125C143.427 23.8841 143.313 23.5846 143.313 23.2266ZM150.627 25.9707L150.696 27.1914C151.477 26.2474 152.502 25.7754 153.772 25.7754C155.972 25.7754 157.092 27.0352 157.131 29.5547V36.5371H154.758V29.6914C154.758 29.0208 154.612 28.526 154.319 28.207C154.032 27.8815 153.56 27.7188 152.903 27.7188C151.946 27.7188 151.233 28.1517 150.764 29.0176V36.5371H148.391V25.9707H150.627ZM165.959 35.502C165.263 36.3223 164.273 36.7324 162.99 36.7324C161.845 36.7324 160.976 36.3971 160.383 35.7266C159.797 35.056 159.504 34.0859 159.504 32.8164V25.9707H161.877V32.7871C161.877 34.1283 162.434 34.7988 163.547 34.7988C164.699 34.7988 165.477 34.3854 165.881 33.5586V25.9707H168.254V36.5371H166.018L165.959 35.502ZM175.324 36.7324C173.821 36.7324 172.6 36.2604 171.662 35.3164C170.731 34.3659 170.266 33.1029 170.266 31.5273V31.2344C170.266 30.1797 170.468 29.2389 170.871 28.4121C171.281 27.5788 171.854 26.931 172.59 26.4688C173.326 26.0065 174.146 25.7754 175.051 25.7754C176.49 25.7754 177.6 26.2344 178.381 27.1523C179.169 28.0703 179.563 29.3691 179.563 31.0488V32.0059H172.658C172.73 32.8783 173.02 33.5684 173.528 34.0762C174.042 34.584 174.686 34.8379 175.461 34.8379C176.548 34.8379 177.434 34.3984 178.117 33.5195L179.397 34.7402C178.974 35.3717 178.407 35.8633 177.698 36.2148C176.994 36.5599 176.203 36.7324 175.324 36.7324ZM175.041 27.6797C174.39 27.6797 173.863 27.9076 173.459 28.3633C173.062 28.819 172.808 29.4538 172.698 30.2676H177.219V30.0918C177.167 29.2975 176.955 28.6986 176.584 28.2949C176.213 27.8848 175.699 27.6797 175.041 27.6797ZM195.676 33.2656L197.356 25.9707H199.67L196.789 36.5371H194.836L192.571 29.2812L190.344 36.5371H188.391L185.5 25.9707H187.815L189.524 33.1875L191.692 25.9707H193.479L195.676 33.2656ZM203.781 36.5371H201.408V25.9707H203.781V36.5371ZM201.262 23.2266C201.262 22.862 201.376 22.5592 201.604 22.3184C201.838 22.0775 202.17 21.957 202.6 21.957C203.03 21.957 203.362 22.0775 203.596 22.3184C203.83 22.5592 203.948 22.862 203.948 23.2266C203.948 23.5846 203.83 23.8841 203.596 24.125C203.362 24.3594 203.03 24.4766 202.6 24.4766C202.17 24.4766 201.838 24.3594 201.604 24.125C201.376 23.8841 201.262 23.5846 201.262 23.2266ZM209.348 23.4023V25.9707H211.213V27.7285H209.348V33.627C209.348 34.0306 209.426 34.3236 209.582 34.5059C209.745 34.6816 210.031 34.7695 210.442 34.7695C210.715 34.7695 210.992 34.737 211.272 34.6719V36.5078C210.731 36.6576 210.211 36.7324 209.709 36.7324C207.886 36.7324 206.975 35.7266 206.975 33.7148V27.7285H205.237V25.9707H206.975V23.4023H209.348ZM215.373 27.123C216.148 26.2246 217.128 25.7754 218.313 25.7754C220.565 25.7754 221.708 27.0612 221.74 29.6328V36.5371H219.367V29.7207C219.367 28.9915 219.208 28.4772 218.889 28.1777C218.576 27.8717 218.114 27.7188 217.502 27.7188C216.552 27.7188 215.842 28.1419 215.373 28.9883V36.5371H213V21.5371H215.373V27.123ZM240.256 34.6914C239.742 35.362 239.029 35.8698 238.117 36.2148C237.206 36.5599 236.171 36.7324 235.012 36.7324C233.821 36.7324 232.766 36.4622 231.848 35.9219C230.93 35.3815 230.22 34.61 229.719 33.6074C229.224 32.5983 228.967 31.4232 228.948 30.082V28.9688C228.948 26.8203 229.462 25.1439 230.49 23.9395C231.519 22.7285 232.955 22.123 234.797 22.123C236.379 22.123 237.636 22.5137 238.567 23.2949C239.498 24.0762 240.058 25.2025 240.246 26.6738H237.824C237.551 24.9616 236.558 24.1055 234.846 24.1055C233.739 24.1055 232.896 24.5059 232.317 25.3066C231.744 26.1009 231.448 27.2695 231.428 28.8125V29.9062C231.428 31.4427 231.75 32.6374 232.395 33.4902C233.046 34.3366 233.948 34.7598 235.1 34.7598C236.363 34.7598 237.261 34.4733 237.795 33.9004V31.1172H234.865V29.2422H240.256V34.6914ZM242.297 31.1562C242.297 30.1211 242.502 29.1901 242.912 28.3633C243.323 27.5299 243.899 26.8919 244.641 26.4492C245.383 26 246.236 25.7754 247.199 25.7754C248.625 25.7754 249.781 26.2344 250.666 27.1523C251.558 28.0703 252.04 29.2878 252.112 30.8047L252.121 31.3613C252.121 32.403 251.92 33.334 251.516 34.1543C251.119 34.9746 250.546 35.6094 249.797 36.0586C249.055 36.5078 248.196 36.7324 247.219 36.7324C245.728 36.7324 244.533 36.2376 243.635 35.248C242.743 34.252 242.297 32.9271 242.297 31.2734V31.1562ZM244.67 31.3613C244.67 32.4486 244.895 33.3014 245.344 33.9199C245.793 34.5319 246.418 34.8379 247.219 34.8379C248.02 34.8379 248.642 34.5254 249.084 33.9004C249.533 33.2754 249.758 32.3607 249.758 31.1562C249.758 30.0885 249.527 29.2422 249.065 28.6172C248.609 27.9922 247.987 27.6797 247.199 27.6797C246.425 27.6797 245.809 27.9889 245.354 28.6074C244.898 29.2194 244.67 30.1374 244.67 31.3613ZM253.684 31.1562C253.684 30.1211 253.889 29.1901 254.299 28.3633C254.709 27.5299 255.285 26.8919 256.028 26.4492C256.77 26 257.623 25.7754 258.586 25.7754C260.012 25.7754 261.168 26.2344 262.053 27.1523C262.945 28.0703 263.427 29.2878 263.498 30.8047L263.508 31.3613C263.508 32.403 263.306 33.334 262.903 34.1543C262.505 34.9746 261.933 35.6094 261.184 36.0586C260.442 36.5078 259.582 36.7324 258.606 36.7324C257.115 36.7324 255.92 36.2376 255.022 35.248C254.13 34.252 253.684 32.9271 253.684 31.2734V31.1562ZM256.057 31.3613C256.057 32.4486 256.281 33.3014 256.731 33.9199C257.18 34.5319 257.805 34.8379 258.606 34.8379C259.406 34.8379 260.028 34.5254 260.471 33.9004C260.92 33.2754 261.145 32.3607 261.145 31.1562C261.145 30.0885 260.914 29.2422 260.451 28.6172C259.996 27.9922 259.374 27.6797 258.586 27.6797C257.811 27.6797 257.196 27.9889 256.74 28.6074C256.285 29.2194 256.057 30.1374 256.057 31.3613ZM265.1 31.1758C265.1 29.5352 265.484 28.2266 266.252 27.25C267.027 26.2669 268.052 25.7754 269.328 25.7754C270.533 25.7754 271.48 26.1953 272.17 27.0352L272.278 25.9707H274.416V36.2148C274.416 37.6016 273.983 38.6953 273.117 39.4961C272.258 40.2969 271.096 40.6973 269.631 40.6973C268.856 40.6973 268.098 40.5345 267.356 40.209C266.62 39.89 266.06 39.4701 265.676 38.9492L266.799 37.5234C267.528 38.3893 268.427 38.8223 269.494 38.8223C270.282 38.8223 270.904 38.6074 271.36 38.1777C271.815 37.7546 272.043 37.1296 272.043 36.3027V35.5898C271.36 36.3516 270.448 36.7324 269.309 36.7324C268.072 36.7324 267.059 36.2409 266.272 35.2578C265.49 34.2747 265.1 32.9141 265.1 31.1758ZM267.463 31.3809C267.463 32.4421 267.678 33.2786 268.108 33.8906C268.544 34.4961 269.146 34.7988 269.914 34.7988C270.871 34.7988 271.581 34.3887 272.043 33.5684V28.9199C271.594 28.1191 270.891 27.7188 269.934 27.7188C269.153 27.7188 268.544 28.028 268.108 28.6465C267.678 29.265 267.463 30.1764 267.463 31.3809ZM279.387 36.5371H277.014V21.5371H279.387V36.5371ZM286.633 36.7324C285.129 36.7324 283.908 36.2604 282.971 35.3164C282.04 34.3659 281.574 33.1029 281.574 31.5273V31.2344C281.574 30.1797 281.776 29.2389 282.18 28.4121C282.59 27.5788 283.163 26.931 283.899 26.4688C284.634 26.0065 285.455 25.7754 286.36 25.7754C287.798 25.7754 288.908 26.2344 289.69 27.1523C290.477 28.0703 290.871 29.3691 290.871 31.0488V32.0059H283.967C284.039 32.8783 284.328 33.5684 284.836 34.0762C285.351 34.584 285.995 34.8379 286.77 34.8379C287.857 34.8379 288.742 34.3984 289.426 33.5195L290.705 34.7402C290.282 35.3717 289.716 35.8633 289.006 36.2148C288.303 36.5599 287.512 36.7324 286.633 36.7324ZM286.35 27.6797C285.699 27.6797 285.171 27.9076 284.768 28.3633C284.371 28.819 284.117 29.4538 284.006 30.2676H288.528V30.0918C288.476 29.2975 288.264 28.6986 287.893 28.2949C287.522 27.8848 287.007 27.6797 286.35 27.6797Z" fill="black" fill-opacity="0.54"/>
</g>
<defs>
<filter id="filter0_dd_1_464" x="0.845947" y="0.537109" width="351" height="62" filterUnits="userSpaceOnUse" color-interpolation-filters="sRGB">
<feFlood flood-opacity="0" result="BackgroundImageFix"/>
<feColorMatrix in="SourceAlpha" type="matrix" values="0 0 0 0 0 0 0 0 0 0 0 0 0 0 0 0 0 0 127 0" result="hardAlpha"/>
<feOffset dy="2"/>
<feGaussianBlur stdDeviation="1.5"/>
<feColorMatrix type="matrix" values="0 0 0 0 0 0 0 0 0 0 0 0 0 0 0 0 0 0 0.168 0"/>
<feBlend mode="normal" in2="BackgroundImageFix" result="effect1_dropShadow_1_464"/>
<feColorMatrix in="SourceAlpha" type="matrix" values="0 0 0 0 0 0 0 0 0 0 0 0 0 0 0 0 0 0 127 0" result="hardAlpha"/>
<feOffset/>
<feGaussianBlur stdDeviation="1.5"/>
<feColorMatrix type="matrix" values="0 0 0 0 0 0 0 0 0 0 0 0 0 0 0 0 0 0 0.084 0"/>
<feBlend mode="normal" in2="effect1_dropShadow_1_464" result="effect2_dropShadow_1_464"/>
<feBlend mode="normal" in="SourceGraphic" in2="effect2_dropShadow_1_464" result="shape"/>
</filter>
</defs>
</svg>
