<svg width="322" height="80" viewBox="0 0 322 80" fill="none" xmlns="http://www.w3.org/2000/svg">
<rect x="0.5" width="321.5" height="80" rx="40" fill="url(#paint0_linear_814_12828)"/>
<path d="M96.1599 51.464C95.0919 51.464 94.1379 51.266 93.2979 50.87C92.4579 50.486 91.7979 49.952 91.3179 49.268C90.8379 48.584 90.5979 47.804 90.5979 46.928C90.5979 46.688 90.6159 46.376 90.6519 45.992C90.6879 45.596 90.7359 45.158 90.7959 44.678C90.8559 44.198 90.9219 43.706 90.9939 43.202C91.0779 42.686 91.1559 42.188 91.2279 41.708L93.9459 42.068C93.8259 42.872 93.7179 43.604 93.6219 44.264C93.5379 44.912 93.4719 45.464 93.4239 45.92C93.3759 46.364 93.3519 46.694 93.3519 46.91C93.3519 47.354 93.4599 47.738 93.6759 48.062C93.8919 48.398 94.2099 48.656 94.6299 48.836C95.0499 49.016 95.5599 49.106 96.1599 49.106C96.7959 49.106 97.2999 49.01 97.6719 48.818C98.0439 48.638 98.3079 48.392 98.4639 48.08C98.6199 47.78 98.6979 47.438 98.6979 47.054V37.946H101.452V47.054C101.452 47.942 101.224 48.716 100.768 49.376C100.312 50.036 99.6819 50.546 98.8779 50.906C98.0859 51.278 97.1799 51.464 96.1599 51.464ZM94.6659 37.064V34.868H97.4379V37.064H94.6659ZM103.395 47V44.642H112.665L111.369 45.938V34.346H114.123V47H103.395ZM105.771 44.642V36.848H108.525V44.642H105.771ZM116.985 47V34.346H119.721V47H116.985ZM126.362 52.976C126.254 52.34 126.152 51.716 126.056 51.104C125.972 50.492 125.93 49.946 125.93 49.466C125.93 48.482 126.122 47.63 126.506 46.91C126.902 46.19 127.454 45.632 128.162 45.236C128.882 44.84 129.722 44.642 130.682 44.642C130.862 44.642 131.06 44.642 131.276 44.642C131.504 44.642 131.768 44.642 132.068 44.642C132.38 44.642 132.74 44.642 133.148 44.642C133.556 44.642 134.03 44.642 134.57 44.642L133.454 45.722V42.536C133.454 41.996 133.394 41.564 133.274 41.24C133.166 40.916 132.95 40.682 132.626 40.538C132.302 40.382 131.828 40.304 131.204 40.304C130.772 40.304 130.322 40.34 129.854 40.412C129.386 40.472 129.014 40.556 128.738 40.664L130.466 39.08C130.382 39.368 130.304 39.728 130.232 40.16C130.172 40.58 130.124 41.018 130.088 41.474C130.052 41.918 130.034 42.332 130.034 42.716C130.034 43.124 130.052 43.55 130.088 43.994C130.124 44.426 130.166 44.816 130.214 45.164C130.274 45.5 130.322 45.728 130.358 45.848L127.748 46.586C127.688 46.406 127.622 46.124 127.55 45.74C127.478 45.356 127.418 44.906 127.37 44.39C127.322 43.874 127.298 43.322 127.298 42.734C127.298 42.146 127.322 41.576 127.37 41.024C127.43 40.472 127.502 39.974 127.586 39.53C127.67 39.074 127.748 38.708 127.82 38.432C128.144 38.312 128.618 38.204 129.242 38.108C129.866 38 130.538 37.946 131.258 37.946C132.098 37.946 132.806 38.03 133.382 38.198C133.958 38.366 134.432 38.6 134.804 38.9C135.176 39.188 135.464 39.524 135.668 39.908C135.872 40.292 136.01 40.712 136.082 41.168C136.166 41.612 136.208 42.074 136.208 42.554V47C135.656 47 135.098 47 134.534 47C133.97 47 133.424 47 132.896 47C132.38 47 131.924 47 131.528 47C131.132 47 130.85 47 130.682 47C130.49 47 130.28 47.024 130.052 47.072C129.824 47.132 129.602 47.24 129.386 47.396C129.182 47.564 129.014 47.81 128.882 48.134C128.75 48.47 128.684 48.914 128.684 49.466C128.684 49.898 128.72 50.396 128.792 50.96C128.876 51.536 128.966 52.208 129.062 52.976H126.362ZM141.729 47V44.642H143.727V47H141.729ZM138.993 47V34.346H141.729V47H138.993ZM143.727 47V44.642C143.871 44.642 143.967 44.75 144.015 44.966C144.063 45.17 144.087 45.452 144.087 45.812C144.087 46.172 144.063 46.46 144.015 46.676C143.967 46.892 143.871 47 143.727 47ZM154.52 47V44.642H156.392V47H154.52ZM143.702 47V44.642H152.882L151.766 45.632V42.518C151.766 41.93 151.7 41.474 151.568 41.15C151.448 40.826 151.226 40.598 150.902 40.466C150.59 40.334 150.152 40.268 149.588 40.268C149.096 40.268 148.616 40.298 148.148 40.358C147.692 40.418 147.332 40.502 147.068 40.61L148.778 39.026C148.706 39.29 148.634 39.632 148.562 40.052C148.502 40.472 148.448 40.916 148.4 41.384C148.364 41.84 148.346 42.284 148.346 42.716C148.346 43.112 148.364 43.532 148.4 43.976C148.448 44.42 148.496 44.816 148.544 45.164C148.604 45.5 148.646 45.728 148.67 45.848L146.06 46.586C146 46.406 145.934 46.124 145.862 45.74C145.79 45.356 145.73 44.906 145.682 44.39C145.634 43.862 145.61 43.304 145.61 42.716C145.61 42.128 145.634 41.558 145.682 41.006C145.742 40.442 145.814 39.932 145.898 39.476C145.982 39.02 146.06 38.66 146.132 38.396C146.42 38.288 146.876 38.18 147.5 38.072C148.136 37.964 148.832 37.91 149.588 37.91C150.692 37.91 151.604 38.06 152.324 38.36C153.056 38.66 153.602 39.146 153.962 39.818C154.334 40.49 154.52 41.396 154.52 42.536V47H143.702ZM143.72 47C143.588 47 143.498 46.892 143.45 46.676C143.39 46.46 143.36 46.172 143.36 45.812C143.36 45.452 143.39 45.17 143.45 44.966C143.498 44.75 143.588 44.642 143.72 44.642V47ZM156.392 47V44.642C156.536 44.642 156.632 44.75 156.68 44.966C156.728 45.17 156.752 45.452 156.752 45.812C156.752 46.172 156.728 46.46 156.68 46.676C156.632 46.892 156.536 47 156.392 47ZM170.578 47V44.642H172.45V47H170.578ZM156.394 47V44.642H170.11L167.824 46.604V42.968C167.824 42.32 167.734 41.804 167.554 41.42C167.386 41.036 167.146 40.754 166.834 40.574C166.522 40.394 166.15 40.304 165.718 40.304C165.202 40.304 164.71 40.412 164.242 40.628C163.786 40.844 163.354 41.12 162.946 41.456C162.55 41.792 162.178 42.152 161.83 42.536C161.494 42.92 161.194 43.286 160.93 43.634C160.678 43.982 160.462 44.258 160.282 44.462L159.724 42.59C160.24 41.942 160.696 41.372 161.092 40.88C161.488 40.376 161.86 39.944 162.208 39.584C162.556 39.212 162.91 38.906 163.27 38.666C163.642 38.426 164.05 38.246 164.494 38.126C164.938 38.006 165.46 37.946 166.06 37.946C166.84 37.946 167.512 38.078 168.076 38.342C168.652 38.606 169.12 38.972 169.48 39.44C169.852 39.908 170.128 40.448 170.308 41.06C170.488 41.66 170.578 42.296 170.578 42.968V47H156.394ZM158.572 44.642V37.946H161.326V44.642H158.572ZM156.394 47C156.262 47 156.172 46.892 156.124 46.676C156.064 46.46 156.034 46.172 156.034 45.812C156.034 45.452 156.064 45.17 156.124 44.966C156.172 44.75 156.262 44.642 156.394 44.642V47ZM172.45 47V44.642C172.582 44.642 172.672 44.75 172.72 44.966C172.78 45.17 172.81 45.452 172.81 45.812C172.81 46.172 172.78 46.46 172.72 46.676C172.672 46.892 172.582 47 172.45 47ZM163.414 36.29V34.094H166.186V36.29H163.414ZM172.442 47V44.642H175.988L174.314 46.028V37.946H177.068V47H172.442ZM172.442 47C172.31 47 172.22 46.892 172.172 46.676C172.112 46.46 172.082 46.172 172.082 45.812C172.082 45.452 172.112 45.17 172.172 44.966C172.22 44.75 172.31 44.642 172.442 44.642V47ZM174.314 36.272V34.076H177.086V36.272H174.314ZM179.933 47V34.346H182.669V47H179.933Z" fill="white"/>
<path d="M204.001 45.4737C210.738 35.3684 221.823 35.9807 228.498 45.4737" stroke="white" stroke-width="1.83727"/>
<path d="M204.001 44.4019C211.656 53.8942 221.516 53.8942 228.498 44.4019" stroke="white" stroke-width="1.83727"/>
<path d="M201.092 42.4111C209.206 29.3978 223.292 29.551 231.713 42.4111" stroke="white" stroke-width="1.83727"/>
<path d="M233.894 37.396C234.253 37.0373 234.253 36.4557 233.894 36.0969C233.536 35.7382 232.954 35.7382 232.595 36.0969L233.894 37.396ZM230.832 40.4582L233.894 37.396L232.595 36.0969L229.533 39.159L230.832 40.4582Z" fill="white"/>
<path d="M198.606 37.396C198.247 37.0373 198.247 36.4557 198.606 36.0969C198.964 35.7382 199.546 35.7382 199.905 36.0969L198.606 37.396ZM201.668 40.4582L198.606 37.396L199.905 36.0969L202.967 39.159L201.668 40.4582Z" fill="white"/>
<path d="M227.317 31.3644C227.557 30.9177 227.39 30.3606 226.943 30.1201C226.497 29.8796 225.939 30.0467 225.699 30.4934L227.317 31.3644ZM225.173 35.3452L227.317 31.3644L225.699 30.4934L223.555 34.4741L225.173 35.3452Z" fill="white"/>
<path d="M205.182 31.3644C204.942 30.9177 205.109 30.3606 205.556 30.1201C206.002 29.8796 206.56 30.0467 206.8 30.4934L205.182 31.3644ZM207.326 35.3452L205.182 31.3644L206.8 30.4934L208.944 34.4741L207.326 35.3452Z" fill="white"/>
<path d="M217.321 28.4791C217.321 27.9718 216.91 27.5605 216.402 27.5605C215.895 27.5605 215.484 27.9718 215.484 28.4791L217.321 28.4791ZM217.321 32.7661L217.321 28.4791L215.484 28.4791L215.484 32.7661L217.321 32.7661Z" fill="white"/>
<circle cx="216.249" cy="43.4836" r="5.97113" fill="white" stroke="white" stroke-width="0.306212"/>
<circle cx="214.009" cy="43.0351" r="1.63935" fill="#E83526" stroke="white" stroke-width="0.306212"/>
<defs>
<linearGradient id="paint0_linear_814_12828" x1="45.2416" y1="7.95192e-07" x2="257.764" y2="33.8535" gradientUnits="userSpaceOnUse">
<stop stop-color="#FF5C00"/>
<stop offset="1" stop-color="#E83526"/>
</linearGradient>
</defs>
</svg>
