<svg width="1233" height="765" viewBox="0 0 1233 765" fill="none" xmlns="http://www.w3.org/2000/svg">
<rect width="203.475" height="316.171" transform="matrix(-0.996034 0.0889683 0.0889683 0.996034 488.932 82.3662)" fill="#585858"/>
<path d="M340.492 355.04L345.681 413.141L509.803 398.481L340.492 355.04Z" fill="#262626"/>
<path d="M106.072 67.5645C106.072 67.5645 102.015 67.8843 101.666 73.4963C101.317 79.1082 101.288 95.3915 108.907 96.3947C116.525 97.3979 111.044 69.6435 111.044 69.6435L106.072 67.5645Z" fill="#1C2226"/>
<path d="M132.531 72.5946C132.531 72.5946 135.614 81.187 129.464 82.7571C123.299 84.3273 124.448 71.8677 124.448 71.8677L132.531 72.5946Z" fill="#1C2226"/>
<path d="M97.4933 126.562L78.4331 153.43L79.4944 150.914L70.6985 190.343L60.8994 188.511L66.9621 148.574C67.0929 147.701 67.4273 146.916 67.8925 146.247L68.0234 146.058L87.0836 119.191L97.4933 126.562Z" fill="#CEFB6E"/>
<path d="M63.4009 202.44C58.3851 200.942 55.5501 195.65 57.0475 190.649C58.545 185.633 63.8371 182.798 68.8384 184.296C73.8543 185.793 76.6893 191.085 75.1918 196.086C73.6944 201.088 68.4168 203.937 63.4009 202.44Z" fill="#CEFB6E"/>
<path d="M138.754 125.646L150.807 162.488L144.337 158.097L183.591 157.036L184.217 166.995L145.137 170.847C142.229 171.138 139.612 169.335 138.74 166.675L138.667 166.457L126.614 129.616L138.754 125.646Z" fill="#CEFB6E"/>
<path d="M136.617 314.082L142.52 330.351L151.156 322.588L145.646 309.546L136.617 314.082Z" fill="#CEFB6E"/>
<path d="M139.103 326.586C139.103 325.786 139.786 325.262 140.469 325.553C141.807 326.12 144.031 326.615 146.663 325.437C149.41 324.201 149.919 322.18 149.919 320.843C149.919 320.145 150.414 319.621 151.053 319.709L171.16 322.602C172.382 322.776 173.53 323.489 174.344 324.579C175.115 325.597 174.751 327.094 173.676 327.414L143.653 336.545C142.476 336.908 141.196 336.05 140.847 334.684L139.146 327.967C139.117 327.85 139.103 327.734 139.103 327.632V326.586Z" fill="#1F252A"/>
<path d="M58.1078 303.033L51.5654 315.841L59.1837 322.355L67.4126 306.987L58.1078 303.033Z" fill="#CEFB6E"/>
<path d="M50.1991 313.021C50.8097 312.512 51.653 312.686 51.8711 313.399C52.3072 314.794 53.354 316.801 55.971 318.051C58.6897 319.345 60.5652 318.415 61.5829 317.557C62.1208 317.106 62.8478 317.15 63.1821 317.688L73.9989 334.887C74.6532 335.934 74.8567 337.257 74.5514 338.58C74.2752 339.83 72.9085 340.513 71.949 339.903L45.5467 322.922C44.5145 322.253 44.3255 320.726 45.1396 319.578L49.1669 313.937C49.2396 313.849 49.3122 313.762 49.3995 313.689L50.1991 313.021Z" fill="#1F252A"/>
<path d="M129.943 182.885L104.123 254.517L67.5723 315.085L51.2744 307.031L83.7684 246.651L101.593 186.258L129.943 182.885Z" fill="#092330"/>
<path d="M90.0493 183.946C90.0493 183.946 85.1643 193.178 92.7535 207.935L116.321 252.903L134.276 321.061L152.115 314.838L135.047 245.91L116.597 192.131L129.958 182.899L90.0493 183.946Z" fill="#0C2C40"/>
<path d="M112.279 104.361L92.1716 108.49C89.8018 108.97 87.7082 110.337 86.2979 112.299L73.5039 130.124L90.6014 141.304L84.437 190.111C84.437 190.111 91.401 211.424 133.883 194.428C133.883 194.428 130.219 153.982 132.676 127.638L131.426 110.293L112.279 104.361Z" fill="#DF945B"/>
<path d="M131.441 110.279L134.785 111.5C137.547 112.503 139.699 114.728 140.615 117.534L147.579 138.775L127.108 142.555L131.441 110.279Z" fill="#DF945B"/>
<path d="M196.648 159.172C196.648 164.406 192.403 168.651 187.169 168.651C181.935 168.651 177.704 164.406 177.704 159.172C177.704 153.938 181.949 149.708 187.169 149.708C192.403 149.708 196.648 153.938 196.648 159.172Z" fill="#CEFB6E"/>
<path d="M117.964 110.512L115.682 111.776C111.247 111.413 107.075 110.468 107.438 106.034L108.5 93.0361L124.565 94.3592L123.503 107.357C123.14 111.791 122.399 110.875 117.964 110.512Z" fill="#CEFB6E"/>
<path d="M108.28 94.6063C108.28 94.6063 110.49 104.231 118.574 103.897C125.639 103.591 124.971 93.0361 124.971 93.0361L108.28 94.6063Z" fill="#F4BE9A"/>
<path d="M117.193 100.48L115.826 100.334C108.993 99.5929 104.05 93.4575 104.777 86.6098L105.62 78.8171C106.362 71.9839 112.497 67.0408 119.345 67.7677L120.711 67.9131C127.545 68.6546 132.488 74.7899 131.761 81.6376L130.918 89.4303C130.176 96.2635 124.041 101.207 117.193 100.48Z" fill="#CEFB6E"/>
<path d="M114.418 93.466C116.599 91.7698 121.687 89.3951 124.595 93.466" stroke="#F59656" stroke-width="1.45387"/>
<path d="M91.7803 137.902L96.956 131.796" stroke="#CE804A" stroke-width="1.11846" stroke-miterlimit="10" stroke-linecap="round" stroke-linejoin="round"/>
<path d="M131.907 141.668L132.692 129.063" stroke="#CE804A" stroke-width="1.11846" stroke-miterlimit="10" stroke-linecap="round" stroke-linejoin="round"/>
<path d="M117.964 110.512L107.758 104.347C103.396 102.53 100.619 106.746 100.619 106.746L112.773 118.668L117.964 110.512Z" fill="#EDA472"/>
<path d="M117.964 110.511L122.907 118.159L127.85 109.159C127.85 109.159 125.902 106.092 123.241 106.804L117.964 110.511Z" fill="#EDA472"/>
<path d="M106.435 84.749H110.607L111.421 80.1693C111.421 80.1693 115.783 77.8286 114.94 73.307C114.94 73.307 133.302 79.8931 136.166 72.5656C139.946 62.8973 126.236 60.4985 114.94 60.7747C103.643 61.0364 104.457 75.4588 104.457 75.4588L106.435 84.749Z" fill="#1C2226"/>
<path d="M108.877 83.833C108.615 86.2755 106.42 88.0347 103.978 87.7731C101.535 87.5114 99.7758 85.316 100.038 82.8735C100.299 80.431 102.495 78.6718 104.937 78.9335C107.38 79.1952 109.139 81.3905 108.877 83.833Z" fill="#CEFB6E"/>
<ellipse cx="124.595" cy="82.562" rx="1.45387" ry="2.90774" fill="#CF621A"/>
<path d="M123.142 78.2003C124.595 80.3811 125.322 81.835 128.23 81.835" stroke="#F59656" stroke-width="1.45387"/>
<path d="M123.142 78.2003C124.595 80.3811 125.322 81.835 128.23 81.835" stroke="#F59656" stroke-width="1.45387"/>
<ellipse cx="117.326" cy="82.562" rx="1.45387" ry="2.90774" fill="#CF621A"/>
<path d="M118.053 78.2003C116.599 80.3811 115.872 81.835 112.964 81.835" stroke="#F59656" stroke-width="1.45387"/>
<path d="M122.224 46.2275L140.647 55.4393L129.664 59.3365V69.2568C123.995 73.1541 119.389 74.217 112.303 69.2568C112.303 63.2338 111.949 59.6908 111.949 59.6908L99.1943 53.6678L122.224 46.2275Z" fill="#170F49"/>
<path d="M129.664 59.3365L120.452 63.2338L111.949 59.6908M129.664 59.3365L140.647 55.4393L122.224 46.2275L99.1943 53.6678L111.949 59.6908M129.664 59.3365V69.2568C123.995 73.1541 119.389 74.217 112.303 69.2568C112.303 63.2338 111.949 59.6908 111.949 59.6908" stroke="white" stroke-width="0.708594"/>
<path d="M-2.10138 72.2406C-2.10138 72.2406 0.980843 80.833 -5.16902 82.4031C-11.3334 83.9733 -10.1849 71.5137 -10.1849 71.5137L-2.10138 72.2406Z" fill="#1C2226"/>
<path d="M4.12228 125.292L16.1748 162.134L9.70508 157.743L48.9595 156.681L49.5848 166.641L10.5048 170.493C7.59704 170.784 4.98005 168.981 4.10772 166.321L4.03505 166.103L-8.01758 129.262L4.12228 125.292Z" fill="#CEFB6E"/>
<path d="M1.98438 313.728L7.88708 329.997L16.5231 322.234L11.0129 309.192L1.98438 313.728Z" fill="#CEFB6E"/>
<path d="M4.4707 326.231C4.4707 325.432 5.15402 324.908 5.83734 325.199C7.1749 325.766 9.39934 326.261 12.0308 325.083C14.7786 323.847 15.2875 321.826 15.2875 320.489C15.2875 319.791 15.7818 319.267 16.4215 319.355L36.5285 322.248C37.7497 322.422 38.8983 323.135 39.7125 324.225C40.483 325.243 40.1196 326.74 39.0437 327.06L9.02132 336.191C7.84369 336.554 6.56429 335.696 6.21536 334.33L4.51436 327.613C4.48528 327.496 4.4707 327.38 4.4707 327.278V326.231Z" fill="#1F252A"/>
<path d="M-44.5835 183.592C-44.5835 183.592 -49.4685 192.824 -41.8793 207.581L-18.3121 252.549L-0.356819 320.707L17.4822 314.484L0.413769 245.556L-18.0358 191.777L-4.67477 182.545L-44.5835 183.592Z" fill="#0C2C40"/>
<path d="M-3.19191 109.925L0.152054 111.146C2.9144 112.149 5.06606 114.374 5.98199 117.18L12.9461 138.421L-7.52441 142.201L-3.19191 109.925Z" fill="#DF945B"/>
<path d="M62.0152 158.818C62.0152 164.052 57.7699 168.297 52.536 168.297C47.3021 168.297 43.0713 164.052 43.0713 158.818C43.0713 153.584 47.3166 149.354 52.536 149.354C57.7699 149.354 62.0152 153.584 62.0152 158.818Z" fill="#CEFB6E"/>
<path d="M-28.1982 84.395H-24.0256L-23.2115 79.8153C-23.2115 79.8153 -18.8499 77.4746 -19.6931 72.953C-19.6931 72.953 -1.3308 79.5391 1.53332 72.2116C5.31337 62.5433 -8.39657 60.1445 -19.6931 60.4207C-30.9897 60.6824 -30.1756 75.1048 -30.1756 75.1048L-28.1982 84.395Z" fill="#1C2226"/>
<path d="M-12.4092 45.8735L6.01427 55.0853L-4.96894 58.9825V68.9028C-10.6377 72.8001 -15.2435 73.863 -22.3295 68.9028C-22.3295 62.8798 -22.6838 59.3368 -22.6838 59.3368L-35.4385 53.3138L-12.4092 45.8735Z" fill="#170F49"/>
<path d="M-4.96894 58.9825L-14.1807 62.8798L-22.6838 59.3368M-4.96894 58.9825L6.01427 55.0853L-12.4092 45.8735L-35.4385 53.3138L-22.6838 59.3368M-4.96894 58.9825V68.9028C-10.6377 72.8001 -15.2435 73.863 -22.3295 68.9028C-22.3295 62.8798 -22.6838 59.3368 -22.6838 59.3368" stroke="white" stroke-width="0.708594"/>
<path d="M698.125 442.782L703.868 456.579L713.23 451.607L707.517 438.071L698.125 442.782Z" fill="#FCC9A7"/>
<path d="M700.713 455.765C700.713 454.936 701.425 454.398 702.137 454.704C703.533 455.3 705.83 455.808 708.578 454.573C711.428 453.293 711.951 451.185 711.966 449.804C711.966 449.077 712.489 448.525 713.143 448.626L734.035 451.636C735.3 451.825 736.492 452.552 737.336 453.686C738.135 454.747 737.757 456.288 736.638 456.637L705.452 466.116C704.231 466.494 702.893 465.608 702.53 464.183L700.771 457.204C700.742 457.088 700.727 456.972 700.727 456.855L700.713 455.765Z" fill="#1F252A"/>
<path d="M613.466 409.313L600.381 416.525L606.327 425.291L619.165 418.138L613.466 409.313Z" fill="#FCC9A7"/>
<path d="M600.846 413.297C601.675 413.21 602.285 413.864 602.067 414.591C601.631 416.03 601.369 418.385 602.896 420.973C604.481 423.663 606.632 423.968 608.014 423.808C608.74 423.736 609.337 424.186 609.322 424.841L608.61 445.936C608.566 447.216 607.97 448.481 606.938 449.44C605.978 450.341 604.393 450.152 603.928 449.062L591.12 419.098C590.611 417.92 591.352 416.495 592.719 415.987L599.465 413.471C599.581 413.428 599.697 413.399 599.814 413.384L600.846 413.297Z" fill="#1F252A"/>
<path d="M691.204 309.491L686.159 341.854L660.658 387.695L616.751 425.873L606.516 407.773L641.336 375.293L661.763 310.044L691.204 309.491Z" fill="#092330"/>
<path d="M649.769 307.645C649.769 307.645 644.695 317.241 652.575 332.564L677.043 379.263L695.696 450.037L714.219 443.567L700.916 371.993L677.334 316.136L691.204 309.491L649.769 307.645Z" fill="#0C2C40"/>
<path d="M703.112 216.589C699.884 220.122 694.403 220.369 690.885 217.156C687.352 213.928 687.105 208.447 690.318 204.914C693.546 201.381 699.012 201.134 702.56 204.347C706.092 207.589 706.34 213.056 703.112 216.589Z" fill="#FCC9A7"/>
<path d="M710.032 221.037L702.501 211.965L696.497 217.999L703.563 226.649L710.032 221.037Z" fill="#FCC9A7"/>
<path d="M693.036 199.797L699.942 209.043C700.843 210.25 700.814 211.922 699.869 213.085L694.272 219.991C692.963 221.605 690.521 221.619 689.198 220.035L681.391 210.744C680.315 209.465 680.373 207.575 681.522 206.354L688.02 199.491C689.416 198.023 691.815 198.154 693.036 199.797Z" fill="#1C2226"/>
<path d="M685.898 232.393L713.274 246.132L698.241 222.943L708.156 214.365L739.502 257.312C742.351 261.005 741.247 266.384 737.161 268.638C735.082 269.786 732.581 269.903 730.401 268.943L689.809 252.82L685.898 232.393Z" fill="#F7ECE7"/>
<path d="M695.697 245.579C695.697 245.579 690.856 283.54 691.205 309.491C691.205 309.491 676.681 315.888 645.888 306.54L653.506 235.955L668.335 230.968L685.898 232.393L695.697 245.579Z" fill="#F7ECE7"/>
<path d="M680.926 228.7L680.548 231.171C680.519 231.346 680.577 231.535 680.708 231.666L684.502 235.693C684.851 236.056 685.462 235.853 685.52 235.358L685.913 232.392C685.942 232.203 685.869 232.014 685.724 231.884L681.929 228.351C681.566 228.031 680.984 228.22 680.926 228.7Z" fill="#FCF3F0"/>
<path d="M675.852 235.083C671.345 234.719 667.987 230.75 668.35 226.243L669.441 213.042L685.782 214.38L682.409 232.626C681.871 234.952 680.374 235.446 675.852 235.083Z" fill="#FCC9A7"/>
<path d="M668.888 217.665C668.888 217.665 672.406 227.668 679.545 226.432C686.101 225.298 685.782 214.379 685.782 214.379L668.888 217.665Z" fill="#F4BE9A"/>
<path d="M678.411 222.797L676.957 222.637C669.717 221.852 664.468 215.339 665.253 208.098L666.14 199.841C666.925 192.6 673.439 187.352 680.679 188.137L682.133 188.297C689.373 189.082 694.621 195.595 693.836 202.835L692.949 211.093C692.164 218.348 685.651 223.582 678.411 222.797Z" fill="#FCC9A7"/>
<path d="M678.411 222.797L676.957 222.637C669.717 221.852 664.468 215.339 665.253 208.098L666.14 199.841C666.925 192.6 673.439 187.352 680.679 188.137L682.133 188.297C689.373 189.082 694.621 195.595 693.836 202.835L692.949 211.093C692.164 218.348 685.651 223.582 678.411 222.797Z" fill="#FCC9A7"/>
<path d="M665.544 205.481C666.533 205.38 670.676 208.52 671.752 207.153C673.235 205.263 674.587 201.818 672.668 198.241C672.348 197.645 672.261 196.947 672.465 196.293C672.843 195.115 673.86 193.749 676.666 194.737C681.159 196.322 691.263 201.411 694.185 194.127C697.878 184.953 668.83 187.512 668.83 187.512L662.215 197.078L665.05 210.715L665.544 205.481Z" fill="#1C2226"/>
<path d="M669.586 206.863C669.31 209.451 666.984 211.326 664.396 211.035C661.808 210.759 659.932 208.433 660.223 205.845C660.499 203.257 662.826 201.382 665.414 201.672C668.001 201.963 669.862 204.275 669.586 206.863Z" fill="#FCC9A7"/>
<path d="M677.335 237.888L673.628 295.04L680.534 301.524L684.634 295.244L680.534 236.754L677.335 237.888Z" fill="#0C2C40"/>
<path d="M682.859 233.948L682.292 233.163L682.438 232.48H674.267L673.627 234.617L679.065 239.415L682.859 233.948Z" fill="#0C2C40"/>
<path d="M668.874 225.472L676.609 230.735C677.481 231.331 677.597 232.582 676.841 233.323L670.764 239.298C670.081 239.967 668.962 239.938 668.322 239.211L662.201 232.334C661.605 231.666 661.634 230.633 662.274 230.008L666.752 225.632C667.319 225.094 668.205 225.021 668.874 225.472Z" fill="#FCF3F0"/>
<path d="M701.643 228.191L713.216 221.212" stroke="#EADDD8" stroke-width="1.10479" stroke-miterlimit="10" stroke-linecap="round" stroke-linejoin="round"/>
<path d="M680.562 283.002L684.619 326.371C684.779 327.999 683.659 329.482 682.045 329.802L632.308 339.31C630.477 339.659 628.746 338.38 628.543 336.533L623.992 295.316C623.818 293.717 624.865 292.234 626.435 291.856L676.666 280.211C678.541 279.76 680.373 281.083 680.562 283.002Z" fill="#AFAFAF"/>
<path d="M677.029 283.772L681.086 327.141C681.231 328.769 680.126 330.252 678.512 330.572L628.776 340.081C626.944 340.43 625.214 339.15 625.01 337.304L620.459 296.087C620.285 294.487 621.332 293.004 622.902 292.626L673.133 280.966C675.023 280.53 676.855 281.853 677.029 283.772Z" fill="#D1D1D1"/>
<path d="M658.26 323.682C662.258 320.018 668.48 320.294 672.144 324.292C675.808 328.29 675.532 334.513 671.534 338.177C667.535 341.84 661.313 341.564 657.649 337.566C653.985 333.553 654.262 327.345 658.26 323.682Z" fill="#FCC9A7"/>
<path d="M650.888 317.953L658.478 328.973L665.863 322.751L658.768 312.269L650.888 317.953Z" fill="#FCC9A7"/>
<path d="M653.491 235.955C653.491 235.955 642.369 237.075 639.141 255.262L626.347 281.839C625.998 283.002 625.766 284.194 625.649 285.387L652.56 324.045L664.7 316.848L642.936 281.955L656.151 261.034L653.491 235.955Z" fill="#F7ECE7"/>
<path d="M660.746 311.628L648.49 318.2" stroke="#EADDD8" stroke-width="1.10479" stroke-miterlimit="10" stroke-linecap="round" stroke-linejoin="round"/>
<path d="M649.682 271.283L657.519 257.646" stroke="#EADDD8" stroke-width="1.10479" stroke-miterlimit="10" stroke-linecap="round" stroke-linejoin="round"/>
<path d="M691.19 197.369C696.743 194.854 695.58 188.37 694.315 186.32C694.315 186.32 694.068 189.969 691.582 189.126C691.582 189.126 691.917 183.688 684.633 182.278C684.633 182.278 687.322 187.163 677.741 186.232C665.98 185.084 665.296 192.528 665.95 201.774L669.556 199.186L672.347 192.746H681.87L691.19 197.369Z" fill="#1C2226"/>
<path d="M905.034 502.304L910.777 516.101L920.14 511.129L914.426 497.593L905.034 502.304Z" fill="#FCC9A7"/>
<path d="M907.622 515.287C907.622 514.458 908.334 513.92 909.047 514.225C910.442 514.822 912.739 515.33 915.487 514.095C918.337 512.815 918.86 510.707 918.875 509.326C918.875 508.599 919.398 508.047 920.052 508.148L940.944 511.158C942.209 511.347 943.402 512.074 944.245 513.208C945.044 514.269 944.666 515.81 943.547 516.159L912.361 525.638C911.14 526.016 909.803 525.129 909.439 523.705L907.68 516.726C907.651 516.61 907.636 516.494 907.636 516.377L907.622 515.287Z" fill="#1F252A"/>
<path d="M820.375 468.835L807.29 476.047L813.237 484.813L826.074 477.66L820.375 468.835Z" fill="#FCC9A7"/>
<path d="M807.755 472.819C808.584 472.732 809.194 473.386 808.976 474.113C808.54 475.552 808.279 477.907 809.805 480.495C811.39 483.185 813.542 483.49 814.923 483.33C815.65 483.258 816.246 483.708 816.231 484.363L815.519 505.458C815.475 506.738 814.879 508.003 813.847 508.962C812.887 509.863 811.303 509.674 810.837 508.584L798.029 478.62C797.52 477.442 798.261 476.017 799.628 475.509L806.374 472.993C806.49 472.95 806.607 472.921 806.723 472.906L807.755 472.819Z" fill="#1F252A"/>
<path d="M898.113 369.013L893.068 401.376L867.568 447.217L823.661 485.395L813.425 467.295L848.246 434.815L868.672 369.566L898.113 369.013Z" fill="#092330"/>
<path d="M856.678 367.167C856.678 367.167 851.604 376.763 859.484 392.086L883.953 438.785L902.606 509.559L921.128 503.089L907.825 431.515L884.243 375.658L898.113 369.013L856.678 367.167Z" fill="#0C2C40"/>
<path d="M910.021 276.111C906.794 279.644 901.313 279.891 897.794 276.678C894.261 273.451 894.014 267.97 897.227 264.437C900.455 260.904 905.921 260.657 909.469 263.87C913.002 267.112 913.249 272.578 910.021 276.111Z" fill="#FCC9A7"/>
<path d="M916.941 280.56L909.41 271.488L903.406 277.521L910.472 286.172L916.941 280.56Z" fill="#FCC9A7"/>
<path d="M899.945 259.319L906.851 268.565C907.753 269.772 907.724 271.444 906.779 272.607L901.181 279.513C899.873 281.127 897.43 281.141 896.107 279.557L888.3 270.266C887.224 268.987 887.282 267.097 888.431 265.876L894.929 259.013C896.325 257.545 898.724 257.676 899.945 259.319Z" fill="#1C2226"/>
<path d="M892.807 291.915L920.183 305.654L905.15 282.465L915.066 273.887L946.411 316.834C949.261 320.527 948.156 325.906 944.07 328.16C941.991 329.308 939.491 329.425 937.31 328.465L896.718 312.342L892.807 291.915Z" fill="#F7ECE7"/>
<path d="M902.606 305.101C902.606 305.101 897.765 343.062 898.114 369.013C898.114 369.013 883.59 375.41 852.797 366.062L860.415 295.477L875.245 290.49L892.807 291.915L902.606 305.101Z" fill="#F7ECE7"/>
<path d="M887.835 288.222L887.457 290.693C887.428 290.868 887.486 291.057 887.617 291.188L891.412 295.215C891.76 295.578 892.371 295.375 892.429 294.88L892.822 291.914C892.851 291.725 892.778 291.536 892.633 291.406L888.838 287.873C888.475 287.553 887.893 287.742 887.835 288.222Z" fill="#FCF3F0"/>
<path d="M882.761 294.604C878.254 294.241 874.896 290.272 875.26 285.765L876.35 272.563L892.691 273.901L889.318 292.147C888.78 294.473 887.283 294.968 882.761 294.604Z" fill="#FCC9A7"/>
<path d="M875.797 277.187C875.797 277.187 879.315 287.19 886.454 285.954C893.011 284.82 892.691 273.901 892.691 273.901L875.797 277.187Z" fill="#F4BE9A"/>
<path d="M885.32 282.319L883.866 282.159C876.626 281.374 871.377 274.861 872.162 267.62L873.049 259.362C873.834 252.122 880.348 246.874 887.588 247.659L889.042 247.819C896.282 248.604 901.531 255.117 900.745 262.357L899.859 270.615C899.074 277.87 892.56 283.104 885.32 282.319Z" fill="#FCC9A7"/>
<path d="M885.32 282.319L883.866 282.159C876.626 281.374 871.377 274.861 872.162 267.62L873.049 259.362C873.834 252.122 880.348 246.874 887.588 247.659L889.042 247.819C896.282 248.604 901.531 255.117 900.745 262.357L899.859 270.615C899.074 277.87 892.56 283.104 885.32 282.319Z" fill="#FCC9A7"/>
<path d="M872.453 265.003C873.442 264.902 877.585 268.042 878.661 266.675C880.144 264.785 881.496 261.34 879.577 257.763C879.257 257.167 879.17 256.469 879.374 255.815C879.752 254.637 880.769 253.271 883.575 254.259C888.068 255.844 898.172 260.933 901.094 253.649C904.787 244.475 875.739 247.034 875.739 247.034L869.124 256.6L871.959 270.237L872.453 265.003Z" fill="#1C2226"/>
<path d="M876.495 266.385C876.219 268.972 873.893 270.848 871.305 270.557C868.717 270.281 866.842 267.955 867.132 265.367C867.409 262.779 869.735 260.904 872.323 261.194C874.911 261.485 876.772 263.797 876.495 266.385Z" fill="#FCC9A7"/>
<path d="M884.245 297.41L880.537 354.562L887.443 361.046L891.543 354.766L887.443 296.276L884.245 297.41Z" fill="#0C2C40"/>
<path d="M889.769 293.47L889.202 292.685L889.347 292.002H881.176L880.536 294.139L885.974 298.937L889.769 293.47Z" fill="#0C2C40"/>
<path d="M875.782 284.994L883.517 290.257C884.389 290.853 884.506 292.104 883.75 292.845L877.672 298.82C876.989 299.489 875.87 299.46 875.23 298.733L869.109 291.856C868.513 291.188 868.542 290.155 869.182 289.53L873.66 285.154C874.227 284.616 875.114 284.543 875.782 284.994Z" fill="#FCF3F0"/>
<path d="M908.552 287.713L920.125 280.734" stroke="#EADDD8" stroke-width="1.10479" stroke-miterlimit="10" stroke-linecap="round" stroke-linejoin="round"/>
<path d="M887.471 342.524L891.528 385.893C891.688 387.521 890.568 389.004 888.954 389.324L839.218 398.832C837.386 399.181 835.656 397.902 835.452 396.055L830.901 354.838C830.727 353.239 831.774 351.756 833.344 351.378L883.575 339.733C885.451 339.282 887.282 340.605 887.471 342.524Z" fill="#AFAFAF"/>
<path d="M883.939 343.295L887.995 386.664C888.14 388.292 887.035 389.775 885.422 390.095L835.685 399.603C833.853 399.952 832.123 398.673 831.919 396.826L827.369 355.609C827.194 354.01 828.241 352.527 829.811 352.149L880.042 340.489C881.932 340.053 883.764 341.376 883.939 343.295Z" fill="#D1D1D1"/>
<path d="M865.169 383.204C869.167 379.54 875.39 379.816 879.053 383.814C882.717 387.812 882.441 394.035 878.443 397.699C874.445 401.362 868.222 401.086 864.558 397.088C860.895 393.075 861.171 386.867 865.169 383.204Z" fill="#FCC9A7"/>
<path d="M857.798 377.475L865.387 388.495L872.772 382.273L865.678 371.791L857.798 377.475Z" fill="#FCC9A7"/>
<path d="M860.4 295.477C860.4 295.477 849.278 296.597 846.05 314.784L833.256 341.361C832.907 342.524 832.675 343.716 832.558 344.909L859.47 383.567L871.609 376.37L849.845 341.477L863.061 320.556L860.4 295.477Z" fill="#F7ECE7"/>
<path d="M867.655 371.15L855.399 377.722" stroke="#EADDD8" stroke-width="1.10479" stroke-miterlimit="10" stroke-linecap="round" stroke-linejoin="round"/>
<path d="M856.591 330.805L864.428 317.168" stroke="#EADDD8" stroke-width="1.10479" stroke-miterlimit="10" stroke-linecap="round" stroke-linejoin="round"/>
<path d="M898.099 256.891C903.653 254.376 902.489 247.892 901.225 245.842C901.225 245.842 900.977 249.491 898.491 248.648C898.491 248.648 898.826 243.21 891.542 241.8C891.542 241.8 894.231 246.685 884.651 245.754C872.889 244.606 872.205 252.05 872.86 261.296L876.465 258.708L879.257 252.268H888.779L898.099 256.891Z" fill="#1C2226"/>
<path fill-rule="evenodd" clip-rule="evenodd" d="M265.287 53.8384L525.246 30.6182L557.722 394.201L509.803 398.482L491.291 191.233C487.243 145.912 447.222 112.454 401.901 116.502C356.58 120.55 323.122 160.572 327.17 205.893L345.682 413.141L297.763 417.422L265.287 53.8384Z" fill="#8E8E8E"/>
<path d="M488.381 372.631L494.123 386.428L503.486 381.456L497.773 367.92L488.381 372.631Z" fill="#FCC9A7"/>
<path d="M490.969 385.614C490.969 384.785 491.681 384.247 492.393 384.553C493.789 385.149 496.086 385.658 498.834 384.422C501.684 383.142 502.207 381.034 502.221 379.653C502.221 378.926 502.745 378.374 503.399 378.475L524.291 381.485C525.556 381.674 526.748 382.401 527.591 383.535C528.391 384.596 528.013 386.137 526.894 386.486L495.708 395.966C494.487 396.344 493.149 395.457 492.786 394.032L491.027 387.053C490.998 386.937 490.983 386.821 490.983 386.704L490.969 385.614Z" fill="#1F252A"/>
<path d="M403.722 339.163L390.637 346.374L396.583 355.141L409.421 347.988L403.722 339.163Z" fill="#FCC9A7"/>
<path d="M391.102 343.147C391.93 343.06 392.541 343.714 392.323 344.441C391.887 345.88 391.625 348.236 393.152 350.823C394.736 353.513 396.888 353.818 398.269 353.658C398.996 353.586 399.592 354.036 399.578 354.691L398.865 375.786C398.822 377.066 398.226 378.331 397.193 379.29C396.234 380.192 394.649 380.003 394.184 378.912L381.375 348.948C380.867 347.77 381.608 346.346 382.975 345.837L389.721 343.322C389.837 343.278 389.953 343.249 390.07 343.234L391.102 343.147Z" fill="#1F252A"/>
<path d="M481.46 239.34L476.415 271.703L450.914 317.544L407.007 355.723L396.772 337.622L431.592 305.142L452.019 239.893L481.46 239.34Z" fill="#092330"/>
<path d="M440.025 237.494C440.025 237.494 434.951 247.09 442.831 262.413L467.299 309.112L485.952 379.886L504.475 373.416L491.172 301.842L467.59 245.985L481.46 239.341L440.025 237.494Z" fill="#0C2C40"/>
<path d="M493.368 146.438C490.14 149.971 484.659 150.218 481.141 147.005C477.608 143.778 477.361 138.297 480.574 134.764C483.801 131.231 489.268 130.984 492.815 134.197C496.348 137.439 496.596 142.906 493.368 146.438Z" fill="#FCC9A7"/>
<path d="M500.288 150.887L492.757 141.815L486.753 147.848L493.818 156.499L500.288 150.887Z" fill="#FCC9A7"/>
<path d="M483.292 129.646L490.198 138.893C491.099 140.099 491.07 141.771 490.125 142.934L484.528 149.84C483.219 151.454 480.777 151.468 479.454 149.884L471.647 140.594C470.571 139.314 470.629 137.424 471.777 136.203L478.276 129.341C479.672 127.872 482.071 128.003 483.292 129.646Z" fill="#1C2226"/>
<path d="M476.154 162.242L503.53 175.981L488.497 152.792L498.412 144.214L529.758 187.161C532.607 190.854 531.502 196.233 527.417 198.487C525.338 199.635 522.837 199.752 520.657 198.792L480.065 182.669L476.154 162.242Z" fill="#F7ECE7"/>
<path d="M485.953 175.428C485.953 175.428 481.112 213.389 481.461 239.34C481.461 239.34 466.937 245.737 436.144 236.389L443.762 165.804L458.591 160.817L476.154 162.242L485.953 175.428Z" fill="#F7ECE7"/>
<path d="M471.182 158.549L470.804 161.02C470.775 161.195 470.833 161.384 470.964 161.515L474.758 165.542C475.107 165.905 475.718 165.702 475.776 165.208L476.168 162.242C476.198 162.053 476.125 161.864 475.979 161.733L472.185 158.2C471.821 157.88 471.24 158.069 471.182 158.549Z" fill="#FCF3F0"/>
<path d="M466.108 164.932C461.601 164.568 458.243 160.599 458.606 156.092L459.697 142.891L476.038 144.229L472.665 162.475C472.127 164.801 470.63 165.295 466.108 164.932Z" fill="#FCC9A7"/>
<path d="M459.144 147.514C459.144 147.514 462.662 157.517 469.8 156.281C476.357 155.147 476.038 144.229 476.038 144.229L459.144 147.514Z" fill="#F4BE9A"/>
<path d="M468.667 152.646L467.213 152.486C459.972 151.701 454.724 145.188 455.509 137.948L456.396 129.69C457.181 122.449 463.694 117.201 470.935 117.986L472.389 118.146C479.629 118.931 484.877 125.444 484.092 132.685L483.205 140.943C482.42 148.197 475.907 153.431 468.667 152.646Z" fill="#FCC9A7"/>
<path d="M468.667 152.646L467.213 152.486C459.972 151.701 454.724 145.188 455.509 137.948L456.396 129.69C457.181 122.449 463.694 117.201 470.935 117.986L472.389 118.146C479.629 118.931 484.877 125.444 484.092 132.685L483.205 140.943C482.42 148.197 475.907 153.431 468.667 152.646Z" fill="#FCC9A7"/>
<path d="M455.8 135.331C456.789 135.229 460.932 138.369 462.008 137.003C463.491 135.113 464.843 131.667 462.924 128.09C462.604 127.494 462.517 126.796 462.72 126.142C463.098 124.965 464.116 123.598 466.922 124.587C471.415 126.171 481.519 131.26 484.441 123.976C488.134 114.802 459.086 117.361 459.086 117.361L452.471 126.927L455.306 140.565L455.8 135.331Z" fill="#1C2226"/>
<path d="M459.842 136.712C459.566 139.3 457.24 141.175 454.652 140.884C452.064 140.608 450.188 138.282 450.479 135.694C450.755 133.106 453.081 131.231 455.669 131.521C458.257 131.812 460.118 134.124 459.842 136.712Z" fill="#FCC9A7"/>
<path d="M467.591 167.738L463.884 224.889L470.79 231.373L474.89 225.093L470.79 166.604L467.591 167.738Z" fill="#0C2C40"/>
<path d="M473.115 163.798L472.548 163.012L472.694 162.329H464.523L463.883 164.466L469.321 169.264L473.115 163.798Z" fill="#0C2C40"/>
<path d="M459.129 155.321L466.864 160.584C467.736 161.18 467.852 162.431 467.096 163.172L461.019 169.148C460.336 169.816 459.216 169.787 458.577 169.06L452.456 162.184C451.86 161.515 451.889 160.483 452.529 159.857L457.007 155.481C457.574 154.943 458.46 154.871 459.129 155.321Z" fill="#FCF3F0"/>
<path d="M491.899 158.04L503.472 151.062" stroke="#EADDD8" stroke-width="1.10479" stroke-miterlimit="10" stroke-linecap="round" stroke-linejoin="round"/>
<path d="M470.818 212.851L474.874 256.22C475.034 257.848 473.915 259.331 472.301 259.651L422.564 269.159C420.732 269.508 419.002 268.229 418.799 266.383L414.248 225.165C414.074 223.566 415.12 222.083 416.691 221.705L466.922 210.06C468.797 209.609 470.629 210.932 470.818 212.851Z" fill="#AFAFAF"/>
<path d="M467.285 213.622L471.342 256.991C471.487 258.619 470.382 260.102 468.768 260.422L419.031 269.93C417.2 270.279 415.47 269 415.266 267.153L410.715 225.936C410.541 224.337 411.588 222.854 413.158 222.476L463.389 210.816C465.279 210.38 467.111 211.703 467.285 213.622Z" fill="#D1D1D1"/>
<path d="M448.516 253.53C452.514 249.866 458.736 250.143 462.4 254.141C466.064 258.139 465.788 264.361 461.789 268.025C457.791 271.689 451.569 271.413 447.905 267.415C444.241 263.402 444.517 257.194 448.516 253.53Z" fill="#FCC9A7"/>
<path d="M441.144 247.802L448.733 258.822L456.119 252.6L449.024 242.117L441.144 247.802Z" fill="#FCC9A7"/>
<path d="M443.747 165.804C443.747 165.804 432.625 166.923 429.397 185.111L416.603 211.688C416.254 212.851 416.021 214.043 415.905 215.235L442.816 253.894L454.956 246.697L433.192 211.804L446.407 190.883L443.747 165.804Z" fill="#F7ECE7"/>
<path d="M451.002 241.478L438.746 248.049" stroke="#EADDD8" stroke-width="1.10479" stroke-miterlimit="10" stroke-linecap="round" stroke-linejoin="round"/>
<path d="M439.938 201.132L447.774 187.495" stroke="#EADDD8" stroke-width="1.10479" stroke-miterlimit="10" stroke-linecap="round" stroke-linejoin="round"/>
<path d="M481.445 127.218C486.999 124.703 485.836 118.219 484.571 116.169C484.571 116.169 484.324 119.818 481.838 118.975C481.838 118.975 482.172 113.537 474.889 112.127C474.889 112.127 477.578 117.012 467.997 116.081C456.235 114.933 455.552 122.377 456.206 131.623L459.812 129.035L462.603 122.595H472.126L481.445 127.218Z" fill="#1C2226"/>
<path d="M525.246 30.6177L265.287 53.8379L114.064 37.1574L397.982 11.7971L525.246 30.6177Z" fill="#B1B1B1"/>
<path d="M114.064 37.1577L265.288 53.8382L297.764 417.421L145.471 388.761L114.064 37.1577Z" fill="#616161"/>
<path fill-rule="evenodd" clip-rule="evenodd" d="M265.288 53.8379L525.247 30.6177L454.91 123.464L455.052 130.089C439.951 119.97 421.418 114.759 401.902 116.502C356.581 120.55 323.123 160.572 327.171 205.892L345.683 413.141L460.922 402.847L460.933 403.359L297.764 417.421L265.288 53.8379Z" fill="#8E8E8E"/>
<path d="M422.929 87.3356C408.69 69.622 388.131 72.6088 377.269 91.414" stroke="#C7BCBC" stroke-width="3.43812"/>
<path d="M422.751 85.3384C410.063 104.306 391.684 105.947 377.091 89.4168" stroke="#C7BCBC" stroke-width="3.43812"/>
<path d="M427.842 81.1423C410.551 58.2378 384.322 60.8684 370.767 86.2404" stroke="#C7BCBC" stroke-width="3.43812"/>
<path d="M365.868 77.257C365.139 76.648 365.042 75.5639 365.651 74.8355C366.26 74.1071 367.344 74.0102 368.073 74.6192L365.868 77.257ZM372.085 82.4546L365.868 77.257L368.073 74.6192L374.29 79.8169L372.085 82.4546Z" fill="#C7BCBC"/>
<path d="M431.642 71.3819C432.251 70.6535 432.154 69.5694 431.425 68.9604C430.697 68.3515 429.613 68.4483 429.004 69.1767L431.642 71.3819ZM426.444 77.5992L431.642 71.3819L429.004 69.1767L423.806 75.394L426.444 77.5992Z" fill="#C7BCBC"/>
<path d="M377.123 64.9187C376.6 64.1262 376.819 63.0599 377.611 62.5372C378.404 62.0145 379.47 62.2333 379.993 63.0259L377.123 64.9187ZM381.781 71.9816L377.123 64.9187L379.993 63.0259L384.651 70.0887L381.781 71.9816Z" fill="#C7BCBC"/>
<path d="M418.378 61.2335C418.752 60.3609 418.348 59.3503 417.475 58.9763C416.603 58.6024 415.592 59.0066 415.218 59.8793L418.378 61.2335ZM415.046 69.0101L418.378 61.2335L415.218 59.8793L411.886 67.6559L415.046 69.0101Z" fill="#C7BCBC"/>
<path d="M395.272 57.8768C395.188 56.9312 395.886 56.0961 396.832 56.0116C397.777 55.9272 398.612 56.6253 398.697 57.5709L395.272 57.8768ZM395.986 65.8673L395.272 57.8768L398.697 57.5709L399.41 65.5614L395.986 65.8673Z" fill="#C7BCBC"/>
<circle cx="11.4604" cy="11.4604" r="11.1739" transform="matrix(-0.996034 0.0889683 0.0889683 0.996034 410.163 73.2305)" fill="#C7BCBC" stroke="#C7BCBC" stroke-width="0.573021"/>
<circle cx="3.35427" cy="3.35427" r="3.06776" transform="matrix(-0.996034 0.0889683 0.0889683 0.996034 406.912 80.8174)" fill="#8E8E8E" stroke="#C7BCBC" stroke-width="0.573021"/>
<rect x="604" y="765" width="712" height="383" transform="rotate(-90 604 765)" fill="url(#paint0_linear_1030_3956)"/>
<rect x="787" y="765" width="712" height="200" transform="rotate(-90 787 765)" fill="url(#paint1_linear_1030_3956)"/>
<rect x="987" y="765" width="712" height="246" transform="rotate(-90 987 765)" fill="white"/>
<defs>
<linearGradient id="paint0_linear_1030_3956" x1="960" y1="765" x2="960" y2="1148" gradientUnits="userSpaceOnUse">
<stop stop-color="white" stop-opacity="0"/>
<stop offset="1" stop-color="white"/>
</linearGradient>
<linearGradient id="paint1_linear_1030_3956" x1="1143" y1="765" x2="1143" y2="965" gradientUnits="userSpaceOnUse">
<stop stop-color="white" stop-opacity="0"/>
<stop offset="1" stop-color="white"/>
</linearGradient>
</defs>
</svg>
