<svg width="507" height="508" viewBox="0 0 507 508" fill="none" xmlns="http://www.w3.org/2000/svg">
<circle cx="183.036" cy="139.036" r="34.0356" fill="#E83526"/>
<circle cx="183.036" cy="139.036" r="34.0356" fill="url(#paint0_linear_1030_3959)"/>
<path d="M166.27 141.81C165.908 141.81 165.568 141.739 165.249 141.596C164.931 141.451 164.651 141.252 164.409 141C164.169 140.745 163.981 140.45 163.843 140.114C163.708 139.777 163.64 139.418 163.64 139.036C163.64 138.654 163.708 138.295 163.843 137.958C163.981 137.622 164.169 137.328 164.409 137.076C164.651 136.821 164.931 136.622 165.249 136.479C165.568 136.334 165.908 136.262 166.27 136.262C166.703 136.262 167.101 136.362 167.466 136.563C167.83 136.765 168.132 137.032 168.371 137.366L167.664 137.744C167.499 137.535 167.294 137.369 167.049 137.244C166.805 137.119 166.545 137.056 166.27 137.056C166.015 137.056 165.777 137.109 165.555 137.213C165.333 137.318 165.138 137.46 164.97 137.641C164.802 137.822 164.671 138.032 164.577 138.272C164.482 138.511 164.435 138.766 164.435 139.036C164.435 139.309 164.482 139.565 164.577 139.804C164.671 140.041 164.802 140.251 164.97 140.435C165.141 140.615 165.337 140.758 165.559 140.863C165.78 140.964 166.017 141.015 166.27 141.015C166.55 141.015 166.811 140.953 167.053 140.828C167.298 140.701 167.501 140.533 167.664 140.324L168.371 140.71C168.132 141.043 167.83 141.311 167.466 141.512C167.101 141.711 166.703 141.81 166.27 141.81ZM170.81 136.361H171.739L173.684 141.711H172.843L172.473 140.694H170.077L169.71 141.711H168.865L170.81 136.361ZM170.371 139.9H172.178L171.273 137.416L170.371 139.9ZM177.789 136.361V137.156H176.085V141.711H175.29V137.156H173.59V136.361H177.789ZM178.557 141.711V136.361H181.877V137.156H179.352V138.447H181.385V139.242H179.352V140.916H181.877V141.711H178.557ZM185.157 141.81C184.785 141.81 184.438 141.739 184.117 141.596C183.799 141.451 183.52 141.251 183.28 140.996C183.043 140.739 182.858 140.442 182.722 140.106C182.59 139.77 182.524 139.412 182.524 139.032C182.524 138.632 182.595 138.264 182.738 137.928C182.88 137.591 183.075 137.3 183.322 137.053C183.57 136.803 183.851 136.609 184.167 136.472C184.485 136.334 184.819 136.265 185.168 136.265C185.563 136.265 185.943 136.357 186.307 136.541C186.671 136.724 186.988 136.999 187.259 137.366L186.548 137.752C186.364 137.523 186.15 137.349 185.906 137.232C185.664 137.115 185.415 137.056 185.161 137.056C184.913 137.056 184.679 137.107 184.457 137.209C184.236 137.309 184.04 137.449 183.869 137.63C183.698 137.808 183.563 138.018 183.464 138.26C183.367 138.5 183.319 138.761 183.319 139.044C183.319 139.316 183.366 139.572 183.46 139.812C183.557 140.051 183.689 140.261 183.857 140.442C184.028 140.621 184.224 140.761 184.446 140.863C184.67 140.964 184.91 141.015 185.164 141.015C185.353 141.015 185.534 140.985 185.707 140.924C185.88 140.863 186.041 140.776 186.189 140.664C186.339 140.549 186.47 140.413 186.582 140.255C186.694 140.097 186.783 139.921 186.85 139.728H185.715V139.024H187.782C187.787 139.407 187.721 139.766 187.583 140.102C187.448 140.438 187.26 140.735 187.018 140.993C186.778 141.247 186.499 141.447 186.181 141.592C185.862 141.738 185.521 141.81 185.157 141.81ZM190.975 141.81C190.613 141.81 190.273 141.739 189.955 141.596C189.636 141.451 189.356 141.251 189.114 140.996C188.872 140.742 188.682 140.447 188.544 140.114C188.407 139.777 188.338 139.418 188.338 139.036C188.338 138.654 188.407 138.296 188.544 137.962C188.682 137.626 188.872 137.33 189.114 137.076C189.356 136.821 189.636 136.622 189.955 136.479C190.273 136.334 190.613 136.262 190.975 136.262C191.339 136.262 191.681 136.334 191.999 136.479C192.317 136.622 192.598 136.821 192.84 137.076C193.082 137.33 193.27 137.626 193.405 137.962C193.543 138.296 193.612 138.654 193.612 139.036C193.612 139.418 193.543 139.777 193.405 140.114C193.27 140.447 193.082 140.742 192.84 140.996C192.598 141.251 192.317 141.451 191.999 141.596C191.681 141.739 191.339 141.81 190.975 141.81ZM190.975 141.015C191.23 141.015 191.468 140.963 191.689 140.859C191.911 140.754 192.106 140.612 192.274 140.431C192.445 140.247 192.577 140.037 192.672 139.8C192.768 139.561 192.817 139.306 192.817 139.036C192.817 138.766 192.768 138.511 192.672 138.272C192.577 138.032 192.445 137.822 192.274 137.641C192.106 137.458 191.911 137.315 191.689 137.213C191.468 137.109 191.23 137.056 190.975 137.056C190.72 137.056 190.482 137.109 190.26 137.213C190.039 137.318 189.842 137.461 189.672 137.645C189.504 137.826 189.371 138.036 189.274 138.275C189.18 138.512 189.133 138.766 189.133 139.036C189.133 139.309 189.18 139.565 189.274 139.804C189.371 140.041 189.504 140.251 189.672 140.435C189.842 140.615 190.039 140.758 190.26 140.863C190.482 140.964 190.72 141.015 190.975 141.015ZM194.335 141.711V136.361H196.303C196.593 136.361 196.855 136.432 197.086 136.575C197.318 136.718 197.502 136.91 197.637 137.152C197.774 137.391 197.843 137.659 197.843 137.954C197.843 138.204 197.796 138.432 197.702 138.638C197.61 138.845 197.48 139.021 197.312 139.166C197.146 139.311 196.957 139.416 196.743 139.479L198.034 141.711H197.113L195.86 139.552H195.13V141.711H194.335ZM195.13 138.757H196.219C196.372 138.757 196.511 138.719 196.636 138.642C196.763 138.566 196.864 138.464 196.937 138.337C197.011 138.209 197.048 138.065 197.048 137.905C197.048 137.744 197.011 137.6 196.937 137.473C196.864 137.343 196.763 137.241 196.636 137.167C196.511 137.091 196.372 137.053 196.219 137.053H195.13V138.757ZM201.749 136.361H202.685L200.858 139.296V141.711H200.063V139.296L198.241 136.361H199.177L200.461 138.428L201.749 136.361Z" fill="white"/>
<path d="M298.678 375.597H221.475V498.097H298.678V375.597Z" fill="#B2B2B2"/>
<path d="M221.777 375.597H144.573V498.097H221.777V375.597Z" fill="#D1D1D1"/>
<path d="M181.328 227.044L178.037 292.892L162.562 341.178H190.423L204.894 299.574L209.416 252.293L181.328 227.044Z" fill="#F7EBE7"/>
<path d="M180.551 457.196L186.154 483.299L167.337 485.535L161.985 459.834L180.551 457.196Z" fill="#FCC9A7"/>
<path d="M187.283 480.938C186.806 479.532 185.299 479.029 184.269 479.934C182.259 481.717 178.641 483.903 173.29 483.375C167.738 482.823 165.652 479.557 164.848 477.195C164.421 475.964 163.241 475.336 162.185 475.864L128.495 492.797C126.46 493.827 124.852 495.736 124.048 498.123C123.295 500.359 124.802 502.77 126.913 502.72L185.123 501.112C187.409 501.062 189.168 498.801 188.967 496.188L188.012 483.375C187.987 483.174 187.962 482.948 187.886 482.747L187.283 480.938Z" fill="#1F252A"/>
<path d="M180.224 330.978H136.535C136.535 330.978 109.93 329.496 108.347 351.328C106.764 373.16 147.363 435.616 153.719 468.979L190.248 465.964L163.944 375.245L229.365 375.622C234.214 375.647 239.037 374.943 243.61 373.361C256.347 368.939 275.792 362.608 265.19 327.536L180.224 330.978Z" fill="#092330"/>
<path d="M213.938 457.297L222.832 488.5L204.014 490.736L195.372 459.935L213.938 457.297Z" fill="#FCC9A7"/>
<path d="M223.963 486.138C223.486 484.731 221.978 484.228 220.948 485.133C218.938 486.916 215.321 489.102 209.97 488.575C204.417 488.022 202.332 484.756 201.528 482.394C201.101 481.163 199.92 480.535 198.865 481.063L165.175 497.996C163.14 499.026 161.532 500.935 160.728 503.322C159.974 505.558 161.482 507.97 163.592 507.919L222.807 506.312C225.094 506.261 226.852 504 226.651 501.387L224.667 488.575C224.641 488.374 224.616 488.148 224.541 487.947L223.963 486.138Z" fill="#1F252A"/>
<path d="M232.428 201.167C233.408 202.122 277.248 213.301 277.248 213.301L267.877 238.198L219.942 234.581L232.428 201.167Z" fill="#F7EBE7"/>
<path d="M214.341 207.172C214.341 207.172 185.776 217.598 181.329 227.044C182.862 240.385 187.56 253.223 195.298 264.201C204.794 277.667 216.527 300.806 214.366 330.979H296.946C296.946 330.979 292.499 246.088 268.054 213.503L214.341 207.172Z" fill="#F7EBE7"/>
<path d="M223.71 220.637C231.825 218.979 237.051 211.065 235.392 202.95L230.544 179.209L201.175 185.213L206.024 208.955C207.682 217.07 215.595 222.295 223.71 220.637Z" fill="#FCC9A7"/>
<path d="M232.554 187.499C232.554 187.499 229.464 206.743 214.49 207.899C201.376 208.904 202.632 189.936 202.632 189.936L232.554 187.499Z" fill="#F4BE9A"/>
<path d="M215.672 197.348L218.259 196.745C231.248 193.73 239.338 180.766 236.323 167.803L232.906 153.005C229.891 140.017 216.928 131.927 203.964 134.942L201.376 135.545C188.388 138.56 180.298 151.523 183.313 164.487L186.73 179.284C189.745 192.273 202.708 200.362 215.672 197.348Z" fill="#FCC9A7"/>
<path d="M228.182 173.958C227.579 174.988 227.001 176.546 226.8 178.908C226.574 181.897 225.066 184.736 222.554 186.394C215.344 191.168 209.842 179.083 199.19 181.219C199.19 181.219 195.019 181.847 194.19 186.495C193.361 191.117 187.558 183.028 186.276 177.501C184.995 171.974 184.342 204.86 210.571 202.071C210.571 202.071 223.81 201.644 232.729 188.153C233.709 186.671 234.287 184.937 234.337 183.153C234.412 180.515 234.035 176.521 231.523 173.657C230.644 172.602 228.885 172.752 228.182 173.958Z" fill="#1C2226"/>
<path d="M228.208 166.497C228.208 166.497 216.878 162.754 218.787 146.197C218.787 146.197 190.649 172.828 169.797 153.282C169.797 153.282 179.118 150.795 182.962 144.414C189.971 132.782 210.12 116.753 226.249 135.294C226.249 135.294 245.87 132.254 240.242 162.477L228.208 166.497Z" fill="#1C2226"/>
<path d="M228.208 166.497C229.288 171.12 233.911 174.009 238.534 172.954C243.181 171.873 246.045 167.251 244.99 162.628C243.91 158.005 239.287 155.116 234.665 156.171C230.017 157.252 227.128 161.874 228.208 166.497Z" fill="#FCC9A7"/>
<path d="M213.887 219.708L226.022 219.934L217.53 237.52L208.36 220.663L213.887 219.708Z" fill="#0C2C40"/>
<path d="M236.423 201.946L220.797 220.186L230.972 231.868L249.688 206.142C249.688 206.142 244.89 198.429 236.423 201.946Z" fill="#FFF7F3"/>
<path d="M213.888 219.708L204.894 229.857L198.562 214.03C198.562 214.03 200.221 206.92 205.396 208.277L213.888 219.708Z" fill="#FFF7F3"/>
<path d="M217.203 231.842C217.203 231.842 205.471 262.442 208.385 305.855L219.942 316.407L233.433 303.418L218.887 229.857L217.203 231.842Z" fill="#0C2C40"/>
<path d="M239.137 304.498L214.014 312.764L212.355 327.511L245.669 317.562L239.137 304.498Z" fill="#FCC9A7"/>
<path d="M217.757 322.511C217.757 331.129 210.773 338.138 202.13 338.138C193.513 338.138 186.504 331.154 186.504 322.511C186.504 313.894 193.488 306.885 202.13 306.885C210.748 306.885 217.757 313.869 217.757 322.511Z" fill="#FCC9A7"/>
<path d="M214.339 330.978H170.675C170.675 330.978 144.07 329.495 142.487 351.327C140.905 373.159 184.493 439.635 190.849 472.974L227.378 469.959L198.085 375.22L263.505 375.596C268.354 375.622 273.178 374.918 277.75 373.335C290.488 368.914 309.933 362.583 299.331 327.511L214.339 330.978Z" fill="#0C2C40"/>
<path d="M82.6201 253.775H158.115C160.602 253.775 162.738 255.509 163.265 257.946L177.485 324.623C178.188 327.889 175.676 330.979 172.335 330.979H95.5836C93.0713 330.979 90.9108 329.195 90.4334 326.733L77.4699 260.056C76.8167 256.79 79.3039 253.775 82.6201 253.775Z" fill="#B2B2B2"/>
<path d="M78.2734 253.775H153.743C156.23 253.775 158.366 255.509 158.894 257.946L173.113 324.623C173.817 327.889 171.329 330.979 167.963 330.979H91.237C88.7246 330.979 86.5641 329.195 86.0868 326.733L73.1232 260.056C72.47 256.79 74.9572 253.775 78.2734 253.775Z" fill="#D1D1D1"/>
<path d="M175.425 325.275H227.003C228.585 325.275 229.842 326.557 229.842 328.114C229.842 329.697 228.56 330.953 227.003 330.953H174.42L175.425 325.275Z" fill="#B2B2B2"/>
<path d="M125.003 290.631C125.003 295.179 121.335 298.847 116.787 298.847C112.24 298.847 108.572 295.153 108.572 290.631C108.572 286.084 112.265 282.416 116.787 282.416C121.335 282.416 125.003 286.084 125.003 290.631Z" fill="white"/>
<path d="M259.235 237.018L286.82 281.561L220.797 305.126L229.841 324.672C229.841 324.672 286.293 318.341 313.576 297.313C316.089 295.379 317.345 292.238 316.918 289.098C315.636 279.049 310.16 254.654 286.82 219.984C282.072 212.925 272.626 210.789 265.265 215.06C257.602 219.482 254.914 229.28 259.235 237.018Z" fill="#F7EBE7"/>
<path d="M238.357 298.846L286.82 281.561L262.576 242.395" stroke="#EADDD8" stroke-width="1.90911" stroke-miterlimit="10" stroke-linecap="round" stroke-linejoin="round"/>
<path d="M205.547 284.098L193.613 252.594" stroke="#EADDD8" stroke-width="1.90911" stroke-miterlimit="10" stroke-linecap="round" stroke-linejoin="round"/>
<path d="M239.137 323.34C239.137 323.34 276.218 318.693 294.91 307.99" stroke="#EADDD8" stroke-width="1.90911" stroke-miterlimit="10" stroke-linecap="round" stroke-linejoin="round"/>
<circle cx="98.0356" cy="201.036" r="34.0356" fill="#E83526"/>
<circle cx="98.0356" cy="201.036" r="34.0356" fill="url(#paint1_linear_1030_3959)"/>
<path d="M81.2696 203.81C80.9079 203.81 80.5678 203.739 80.2493 203.596C79.9309 203.451 79.6506 203.252 79.4086 203C79.1691 202.745 78.9806 202.45 78.843 202.114C78.708 201.777 78.6405 201.418 78.6405 201.036C78.6405 200.654 78.708 200.295 78.843 199.958C78.9806 199.622 79.1691 199.328 79.4086 199.076C79.6506 198.821 79.9309 198.622 80.2493 198.479C80.5678 198.334 80.9079 198.262 81.2696 198.262C81.7027 198.262 82.1014 198.362 82.4657 198.563C82.8301 198.765 83.132 199.032 83.3714 199.366L82.6645 199.744C82.4989 199.535 82.2938 199.369 82.0492 199.244C81.8046 199.119 81.5448 199.056 81.2696 199.056C81.0149 199.056 80.7767 199.109 80.555 199.213C80.3334 199.318 80.1385 199.46 79.9703 199.641C79.8022 199.822 79.671 200.032 79.5767 200.272C79.4825 200.511 79.4353 200.766 79.4353 201.036C79.4353 201.309 79.4825 201.565 79.5767 201.804C79.671 202.041 79.8022 202.251 79.9703 202.435C80.141 202.615 80.3372 202.758 80.5588 202.863C80.7805 202.964 81.0174 203.015 81.2696 203.015C81.5499 203.015 81.811 202.953 82.053 202.828C82.2976 202.701 82.5014 202.533 82.6645 202.324L83.3714 202.71C83.132 203.043 82.8301 203.311 82.4657 203.512C82.1014 203.711 81.7027 203.81 81.2696 203.81ZM85.8102 198.361H86.7388L88.6839 203.711H87.8432L87.4726 202.694H85.0765L84.7096 203.711H83.8651L85.8102 198.361ZM85.3708 201.9H87.1783L86.2726 199.416L85.3708 201.9ZM92.7894 198.361V199.156H91.0851V203.711H90.2902V199.156H88.5897V198.361H92.7894ZM93.5566 203.711V198.361H96.8775V199.156H94.3515V200.447H96.3845V201.242H94.3515V202.916H96.8775V203.711H93.5566ZM100.157 203.81C99.7848 203.81 99.4383 203.739 99.1173 203.596C98.7989 203.451 98.5199 203.251 98.2804 202.996C98.0435 202.739 97.8575 202.442 97.7225 202.106C97.59 201.77 97.5238 201.412 97.5238 201.032C97.5238 200.632 97.5951 200.264 97.7378 199.928C97.8804 199.591 98.0753 199.3 98.3225 199.053C98.5696 198.803 98.8511 198.609 99.167 198.472C99.4854 198.334 99.8192 198.265 100.168 198.265C100.563 198.265 100.943 198.357 101.307 198.541C101.671 198.724 101.988 198.999 102.259 199.366L101.548 199.752C101.364 199.523 101.15 199.349 100.906 199.232C100.664 199.115 100.415 199.056 100.161 199.056C99.9134 199.056 99.6791 199.107 99.4574 199.209C99.2358 199.309 99.0396 199.449 98.8689 199.63C98.6982 199.808 98.5632 200.018 98.4638 200.26C98.367 200.5 98.3186 200.761 98.3186 201.044C98.3186 201.316 98.3658 201.572 98.46 201.812C98.5568 202.051 98.6893 202.261 98.8575 202.442C99.0281 202.621 99.2243 202.761 99.446 202.863C99.6702 202.964 99.9096 203.015 100.164 203.015C100.353 203.015 100.534 202.985 100.707 202.924C100.88 202.863 101.041 202.776 101.189 202.664C101.339 202.549 101.47 202.413 101.582 202.255C101.694 202.097 101.783 201.921 101.85 201.728H100.715V201.024H102.782C102.787 201.407 102.721 201.766 102.583 202.102C102.448 202.438 102.26 202.735 102.018 202.993C101.778 203.247 101.499 203.447 101.181 203.592C100.862 203.738 100.521 203.81 100.157 203.81ZM105.975 203.81C105.613 203.81 105.273 203.739 104.955 203.596C104.636 203.451 104.356 203.251 104.114 202.996C103.872 202.742 103.682 202.447 103.544 202.114C103.407 201.777 103.338 201.418 103.338 201.036C103.338 200.654 103.407 200.296 103.544 199.962C103.682 199.626 103.872 199.33 104.114 199.076C104.356 198.821 104.636 198.622 104.955 198.479C105.273 198.334 105.613 198.262 105.975 198.262C106.339 198.262 106.681 198.334 106.999 198.479C107.317 198.622 107.598 198.821 107.84 199.076C108.082 199.33 108.27 199.626 108.405 199.962C108.543 200.296 108.612 200.654 108.612 201.036C108.612 201.418 108.543 201.777 108.405 202.114C108.27 202.447 108.082 202.742 107.84 202.996C107.598 203.251 107.317 203.451 106.999 203.596C106.681 203.739 106.339 203.81 105.975 203.81ZM105.975 203.015C106.23 203.015 106.468 202.963 106.689 202.859C106.911 202.754 107.106 202.612 107.274 202.431C107.445 202.247 107.577 202.037 107.672 201.8C107.768 201.561 107.817 201.306 107.817 201.036C107.817 200.766 107.768 200.511 107.672 200.272C107.577 200.032 107.445 199.822 107.274 199.641C107.106 199.458 106.911 199.315 106.689 199.213C106.468 199.109 106.23 199.056 105.975 199.056C105.72 199.056 105.482 199.109 105.26 199.213C105.039 199.318 104.842 199.461 104.672 199.645C104.504 199.826 104.371 200.036 104.274 200.275C104.18 200.512 104.133 200.766 104.133 201.036C104.133 201.309 104.18 201.565 104.274 201.804C104.371 202.041 104.504 202.251 104.672 202.435C104.842 202.615 105.039 202.758 105.26 202.863C105.482 202.964 105.72 203.015 105.975 203.015ZM109.335 203.711V198.361H111.303C111.593 198.361 111.855 198.432 112.086 198.575C112.318 198.718 112.502 198.91 112.637 199.152C112.774 199.391 112.843 199.659 112.843 199.954C112.843 200.204 112.796 200.432 112.702 200.638C112.61 200.845 112.48 201.021 112.312 201.166C112.146 201.311 111.957 201.416 111.743 201.479L113.034 203.711H112.113L110.86 201.552H110.13V203.711H109.335ZM110.13 200.757H111.219C111.372 200.757 111.511 200.719 111.636 200.642C111.763 200.566 111.864 200.464 111.937 200.337C112.011 200.209 112.048 200.065 112.048 199.905C112.048 199.744 112.011 199.6 111.937 199.473C111.864 199.343 111.763 199.241 111.636 199.167C111.511 199.091 111.372 199.053 111.219 199.053H110.13V200.757ZM116.749 198.361H117.685L115.858 201.296V203.711H115.063V201.296L113.241 198.361H114.177L115.461 200.428L116.749 198.361Z" fill="white"/>
<circle cx="355.882" cy="199.036" r="34.0356" fill="#E83526"/>
<circle cx="355.882" cy="199.036" r="34.0356" fill="url(#paint2_linear_1030_3959)"/>
<path d="M339.116 201.81C338.755 201.81 338.414 201.739 338.096 201.596C337.778 201.451 337.497 201.252 337.255 201C337.016 200.745 336.827 200.45 336.69 200.114C336.555 199.777 336.487 199.418 336.487 199.036C336.487 198.654 336.555 198.295 336.69 197.958C336.827 197.622 337.016 197.328 337.255 197.076C337.497 196.821 337.778 196.622 338.096 196.479C338.414 196.334 338.755 196.262 339.116 196.262C339.549 196.262 339.948 196.362 340.312 196.563C340.677 196.765 340.979 197.032 341.218 197.366L340.511 197.744C340.346 197.535 340.14 197.369 339.896 197.244C339.651 197.119 339.391 197.056 339.116 197.056C338.862 197.056 338.623 197.109 338.402 197.213C338.18 197.318 337.985 197.46 337.817 197.641C337.649 197.822 337.518 198.032 337.423 198.272C337.329 198.511 337.282 198.766 337.282 199.036C337.282 199.309 337.329 199.565 337.423 199.804C337.518 200.041 337.649 200.251 337.817 200.435C337.988 200.615 338.184 200.758 338.406 200.863C338.627 200.964 338.864 201.015 339.116 201.015C339.397 201.015 339.658 200.953 339.9 200.828C340.144 200.701 340.348 200.533 340.511 200.324L341.218 200.71C340.979 201.043 340.677 201.311 340.312 201.512C339.948 201.711 339.549 201.81 339.116 201.81ZM343.657 196.361H344.586L346.531 201.711H345.69L345.319 200.694H342.923L342.556 201.711H341.712L343.657 196.361ZM343.217 199.9H345.025L344.119 197.416L343.217 199.9ZM350.636 196.361V197.156H348.932V201.711H348.137V197.156H346.436V196.361H350.636ZM351.403 201.711V196.361H354.724V197.156H352.198V198.447H354.231V199.242H352.198V200.916H354.724V201.711H351.403ZM358.003 201.81C357.631 201.81 357.285 201.739 356.964 201.596C356.646 201.451 356.367 201.251 356.127 200.996C355.89 200.739 355.704 200.442 355.569 200.106C355.437 199.77 355.37 199.412 355.37 199.032C355.37 198.632 355.442 198.264 355.584 197.928C355.727 197.591 355.922 197.3 356.169 197.053C356.416 196.803 356.698 196.609 357.014 196.472C357.332 196.334 357.666 196.265 358.015 196.265C358.41 196.265 358.789 196.357 359.154 196.541C359.518 196.724 359.835 196.999 360.105 197.366L359.394 197.752C359.211 197.523 358.997 197.349 358.752 197.232C358.51 197.115 358.262 197.056 358.007 197.056C357.76 197.056 357.526 197.107 357.304 197.209C357.082 197.309 356.886 197.449 356.716 197.63C356.545 197.808 356.41 198.018 356.311 198.26C356.214 198.5 356.165 198.761 356.165 199.044C356.165 199.316 356.212 199.572 356.307 199.812C356.404 200.051 356.536 200.261 356.704 200.442C356.875 200.621 357.071 200.761 357.293 200.863C357.517 200.964 357.756 201.015 358.011 201.015C358.2 201.015 358.38 200.985 358.554 200.924C358.727 200.863 358.887 200.776 359.035 200.664C359.186 200.549 359.317 200.413 359.429 200.255C359.541 200.097 359.63 199.921 359.696 199.728H358.561V199.024H360.629C360.634 199.407 360.568 199.766 360.43 200.102C360.295 200.438 360.106 200.735 359.864 200.993C359.625 201.247 359.346 201.447 359.028 201.592C358.709 201.738 358.368 201.81 358.003 201.81ZM363.822 201.81C363.46 201.81 363.12 201.739 362.801 201.596C362.483 201.451 362.202 201.251 361.96 200.996C361.718 200.742 361.529 200.447 361.391 200.114C361.254 199.777 361.185 199.418 361.185 199.036C361.185 198.654 361.254 198.296 361.391 197.962C361.529 197.626 361.718 197.33 361.96 197.076C362.202 196.821 362.483 196.622 362.801 196.479C363.12 196.334 363.46 196.262 363.822 196.262C364.186 196.262 364.527 196.334 364.846 196.479C365.164 196.622 365.444 196.821 365.686 197.076C365.928 197.33 366.117 197.626 366.252 197.962C366.39 198.296 366.458 198.654 366.458 199.036C366.458 199.418 366.39 199.777 366.252 200.114C366.117 200.447 365.928 200.742 365.686 200.996C365.444 201.251 365.164 201.451 364.846 201.596C364.527 201.739 364.186 201.81 363.822 201.81ZM363.822 201.015C364.076 201.015 364.314 200.963 364.536 200.859C364.758 200.754 364.953 200.612 365.121 200.431C365.291 200.247 365.424 200.037 365.518 199.8C365.615 199.561 365.663 199.306 365.663 199.036C365.663 198.766 365.615 198.511 365.518 198.272C365.424 198.032 365.291 197.822 365.121 197.641C364.953 197.458 364.758 197.315 364.536 197.213C364.314 197.109 364.076 197.056 363.822 197.056C363.567 197.056 363.329 197.109 363.107 197.213C362.885 197.318 362.689 197.461 362.518 197.645C362.35 197.826 362.218 198.036 362.121 198.275C362.027 198.512 361.98 198.766 361.98 199.036C361.98 199.309 362.027 199.565 362.121 199.804C362.218 200.041 362.35 200.251 362.518 200.435C362.689 200.615 362.885 200.758 363.107 200.863C363.329 200.964 363.567 201.015 363.822 201.015ZM367.182 201.711V196.361H369.15C369.44 196.361 369.701 196.432 369.933 196.575C370.165 196.718 370.348 196.91 370.483 197.152C370.621 197.391 370.69 197.659 370.69 197.954C370.69 198.204 370.643 198.432 370.548 198.638C370.457 198.845 370.327 199.021 370.159 199.166C369.993 199.311 369.803 199.416 369.589 199.479L370.881 201.711H369.96L368.706 199.552H367.977V201.711H367.182ZM367.977 198.757H369.066C369.219 198.757 369.357 198.719 369.482 198.642C369.61 198.566 369.71 198.464 369.784 198.337C369.858 198.209 369.895 198.065 369.895 197.905C369.895 197.744 369.858 197.6 369.784 197.473C369.71 197.343 369.61 197.241 369.482 197.167C369.357 197.091 369.219 197.053 369.066 197.053H367.977V198.757ZM374.595 196.361H375.532L373.705 199.296V201.711H372.91V199.296L371.087 196.361H372.024L373.308 198.428L374.595 196.361Z" fill="white"/>
<circle cx="445.036" cy="119.036" r="34.0356" fill="#E83526"/>
<circle cx="445.036" cy="119.036" r="34.0356" fill="url(#paint3_linear_1030_3959)"/>
<path d="M428.27 121.81C427.908 121.81 427.568 121.739 427.249 121.596C426.931 121.451 426.651 121.252 426.409 121C426.169 120.745 425.981 120.45 425.843 120.114C425.708 119.777 425.64 119.418 425.64 119.036C425.64 118.654 425.708 118.295 425.843 117.958C425.981 117.622 426.169 117.328 426.409 117.076C426.651 116.821 426.931 116.622 427.249 116.479C427.568 116.334 427.908 116.262 428.27 116.262C428.703 116.262 429.101 116.362 429.466 116.563C429.83 116.765 430.132 117.032 430.371 117.366L429.664 117.744C429.499 117.535 429.294 117.369 429.049 117.244C428.805 117.119 428.545 117.056 428.27 117.056C428.015 117.056 427.777 117.109 427.555 117.213C427.333 117.318 427.138 117.46 426.97 117.641C426.802 117.822 426.671 118.032 426.577 118.272C426.482 118.511 426.435 118.766 426.435 119.036C426.435 119.309 426.482 119.565 426.577 119.804C426.671 120.041 426.802 120.251 426.97 120.435C427.141 120.615 427.337 120.758 427.559 120.863C427.78 120.964 428.017 121.015 428.27 121.015C428.55 121.015 428.811 120.953 429.053 120.828C429.298 120.701 429.501 120.533 429.664 120.324L430.371 120.71C430.132 121.043 429.83 121.311 429.466 121.512C429.101 121.711 428.703 121.81 428.27 121.81ZM432.81 116.361H433.739L435.684 121.711H434.843L434.473 120.694H432.077L431.71 121.711H430.865L432.81 116.361ZM432.371 119.9H434.178L433.273 117.416L432.371 119.9ZM439.789 116.361V117.156H438.085V121.711H437.29V117.156H435.59V116.361H439.789ZM440.557 121.711V116.361H443.877V117.156H441.352V118.447H443.385V119.242H441.352V120.916H443.877V121.711H440.557ZM447.157 121.81C446.785 121.81 446.438 121.739 446.117 121.596C445.799 121.451 445.52 121.251 445.28 120.996C445.043 120.739 444.858 120.442 444.722 120.106C444.59 119.77 444.524 119.412 444.524 119.032C444.524 118.632 444.595 118.264 444.738 117.928C444.88 117.591 445.075 117.3 445.322 117.053C445.57 116.803 445.851 116.609 446.167 116.472C446.485 116.334 446.819 116.265 447.168 116.265C447.563 116.265 447.943 116.357 448.307 116.541C448.671 116.724 448.988 116.999 449.259 117.366L448.548 117.752C448.364 117.523 448.15 117.349 447.906 117.232C447.664 117.115 447.415 117.056 447.161 117.056C446.913 117.056 446.679 117.107 446.457 117.209C446.236 117.309 446.04 117.449 445.869 117.63C445.698 117.808 445.563 118.018 445.464 118.26C445.367 118.5 445.319 118.761 445.319 119.044C445.319 119.316 445.366 119.572 445.46 119.812C445.557 120.051 445.689 120.261 445.857 120.442C446.028 120.621 446.224 120.761 446.446 120.863C446.67 120.964 446.91 121.015 447.164 121.015C447.353 121.015 447.534 120.985 447.707 120.924C447.88 120.863 448.041 120.776 448.189 120.664C448.339 120.549 448.47 120.413 448.582 120.255C448.694 120.097 448.783 119.921 448.85 119.728H447.715V119.024H449.782C449.787 119.407 449.721 119.766 449.583 120.102C449.448 120.438 449.26 120.735 449.018 120.993C448.778 121.247 448.499 121.447 448.181 121.592C447.862 121.738 447.521 121.81 447.157 121.81ZM452.975 121.81C452.613 121.81 452.273 121.739 451.955 121.596C451.636 121.451 451.356 121.251 451.114 120.996C450.872 120.742 450.682 120.447 450.544 120.114C450.407 119.777 450.338 119.418 450.338 119.036C450.338 118.654 450.407 118.296 450.544 117.962C450.682 117.626 450.872 117.33 451.114 117.076C451.356 116.821 451.636 116.622 451.955 116.479C452.273 116.334 452.613 116.262 452.975 116.262C453.339 116.262 453.681 116.334 453.999 116.479C454.317 116.622 454.598 116.821 454.84 117.076C455.082 117.33 455.27 117.626 455.405 117.962C455.543 118.296 455.612 118.654 455.612 119.036C455.612 119.418 455.543 119.777 455.405 120.114C455.27 120.447 455.082 120.742 454.84 120.996C454.598 121.251 454.317 121.451 453.999 121.596C453.681 121.739 453.339 121.81 452.975 121.81ZM452.975 121.015C453.23 121.015 453.468 120.963 453.689 120.859C453.911 120.754 454.106 120.612 454.274 120.431C454.445 120.247 454.577 120.037 454.672 119.8C454.768 119.561 454.817 119.306 454.817 119.036C454.817 118.766 454.768 118.511 454.672 118.272C454.577 118.032 454.445 117.822 454.274 117.641C454.106 117.458 453.911 117.315 453.689 117.213C453.468 117.109 453.23 117.056 452.975 117.056C452.72 117.056 452.482 117.109 452.26 117.213C452.039 117.318 451.842 117.461 451.672 117.645C451.504 117.826 451.371 118.036 451.274 118.275C451.18 118.512 451.133 118.766 451.133 119.036C451.133 119.309 451.18 119.565 451.274 119.804C451.371 120.041 451.504 120.251 451.672 120.435C451.842 120.615 452.039 120.758 452.26 120.863C452.482 120.964 452.72 121.015 452.975 121.015ZM456.335 121.711V116.361H458.303C458.593 116.361 458.855 116.432 459.086 116.575C459.318 116.718 459.502 116.91 459.637 117.152C459.774 117.391 459.843 117.659 459.843 117.954C459.843 118.204 459.796 118.432 459.702 118.638C459.61 118.845 459.48 119.021 459.312 119.166C459.146 119.311 458.957 119.416 458.743 119.479L460.034 121.711H459.113L457.86 119.552H457.13V121.711H456.335ZM457.13 118.757H458.219C458.372 118.757 458.511 118.719 458.636 118.642C458.763 118.566 458.864 118.464 458.937 118.337C459.011 118.209 459.048 118.065 459.048 117.905C459.048 117.744 459.011 117.6 458.937 117.473C458.864 117.343 458.763 117.241 458.636 117.167C458.511 117.091 458.372 117.053 458.219 117.053H457.13V118.757ZM463.749 116.361H464.685L462.858 119.296V121.711H462.063V119.296L460.241 116.361H461.177L462.461 118.428L463.749 116.361Z" fill="white"/>
<circle cx="34.0356" cy="122.036" r="34.0356" fill="#E83526"/>
<circle cx="34.0356" cy="122.036" r="34.0356" fill="url(#paint4_linear_1030_3959)"/>
<path d="M17.2696 124.81C16.9079 124.81 16.5678 124.739 16.2493 124.596C15.9309 124.451 15.6506 124.252 15.4086 124C15.1691 123.745 14.9806 123.45 14.843 123.114C14.708 122.777 14.6405 122.418 14.6405 122.036C14.6405 121.654 14.708 121.295 14.843 120.958C14.9806 120.622 15.1691 120.328 15.4086 120.076C15.6506 119.821 15.9309 119.622 16.2493 119.479C16.5678 119.334 16.9079 119.262 17.2696 119.262C17.7027 119.262 18.1014 119.362 18.4657 119.563C18.8301 119.765 19.132 120.032 19.3714 120.366L18.6645 120.744C18.4989 120.535 18.2938 120.369 18.0492 120.244C17.8046 120.119 17.5448 120.056 17.2696 120.056C17.0149 120.056 16.7767 120.109 16.555 120.213C16.3334 120.318 16.1385 120.46 15.9703 120.641C15.8022 120.822 15.671 121.032 15.5767 121.272C15.4825 121.511 15.4353 121.766 15.4353 122.036C15.4353 122.309 15.4825 122.565 15.5767 122.804C15.671 123.041 15.8022 123.251 15.9703 123.435C16.141 123.615 16.3372 123.758 16.5588 123.863C16.7805 123.964 17.0174 124.015 17.2696 124.015C17.5499 124.015 17.811 123.953 18.053 123.828C18.2976 123.701 18.5014 123.533 18.6645 123.324L19.3714 123.71C19.132 124.043 18.8301 124.311 18.4657 124.512C18.1014 124.711 17.7027 124.81 17.2696 124.81ZM21.8102 119.361H22.7388L24.6839 124.711H23.8432L23.4726 123.694H21.0765L20.7096 124.711H19.8651L21.8102 119.361ZM21.3708 122.9H23.1783L22.2726 120.416L21.3708 122.9ZM28.7894 119.361V120.156H27.0851V124.711H26.2902V120.156H24.5897V119.361H28.7894ZM29.5566 124.711V119.361H32.8775V120.156H30.3515V121.447H32.3845V122.242H30.3515V123.916H32.8775V124.711H29.5566ZM36.1567 124.81C35.7848 124.81 35.4383 124.739 35.1173 124.596C34.7989 124.451 34.5199 124.251 34.2804 123.996C34.0435 123.739 33.8575 123.442 33.7225 123.106C33.59 122.77 33.5238 122.412 33.5238 122.032C33.5238 121.632 33.5951 121.264 33.7378 120.928C33.8804 120.591 34.0753 120.3 34.3225 120.053C34.5696 119.803 34.8511 119.609 35.167 119.472C35.4854 119.334 35.8192 119.265 36.1682 119.265C36.5631 119.265 36.9427 119.357 37.307 119.541C37.6713 119.724 37.9885 119.999 38.2585 120.366L37.5478 120.752C37.3643 120.523 37.1503 120.349 36.9057 120.232C36.6637 120.115 36.4153 120.056 36.1606 120.056C35.9134 120.056 35.6791 120.107 35.4574 120.209C35.2358 120.309 35.0396 120.449 34.8689 120.63C34.6982 120.808 34.5632 121.018 34.4638 121.26C34.367 121.5 34.3186 121.761 34.3186 122.044C34.3186 122.316 34.3658 122.572 34.46 122.812C34.5568 123.051 34.6893 123.261 34.8575 123.442C35.0281 123.621 35.2243 123.761 35.446 123.863C35.6702 123.964 35.9096 124.015 36.1644 124.015C36.3529 124.015 36.5338 123.985 36.707 123.924C36.8803 123.863 37.0408 123.776 37.1885 123.664C37.3388 123.549 37.47 123.413 37.5821 123.255C37.6942 123.097 37.7834 122.921 37.8496 122.728H36.7147V122.024H38.7821C38.7872 122.407 38.7209 122.766 38.5834 123.102C38.4483 123.438 38.2598 123.735 38.0178 123.993C37.7783 124.247 37.4993 124.447 37.1809 124.592C36.8624 124.738 36.5211 124.81 36.1567 124.81ZM41.9748 124.81C41.6131 124.81 41.273 124.739 40.9545 124.596C40.6361 124.451 40.3558 124.251 40.1138 123.996C39.8718 123.742 39.682 123.447 39.5444 123.114C39.4068 122.777 39.338 122.418 39.338 122.036C39.338 121.654 39.4068 121.296 39.5444 120.962C39.682 120.626 39.8718 120.33 40.1138 120.076C40.3558 119.821 40.6361 119.622 40.9545 119.479C41.273 119.334 41.6131 119.262 41.9748 119.262C42.3391 119.262 42.6805 119.334 42.999 119.479C43.3174 119.622 43.5977 119.821 43.8397 120.076C44.0817 120.33 44.2702 120.626 44.4053 120.962C44.5428 121.296 44.6116 121.654 44.6116 122.036C44.6116 122.418 44.5428 122.777 44.4053 123.114C44.2702 123.447 44.0817 123.742 43.8397 123.996C43.5977 124.251 43.3174 124.451 42.999 124.596C42.6805 124.739 42.3391 124.81 41.9748 124.81ZM41.9748 124.015C42.2296 124.015 42.4678 123.963 42.6894 123.859C42.9111 123.754 43.106 123.612 43.2741 123.431C43.4448 123.247 43.5773 123.037 43.6715 122.8C43.7684 122.561 43.8168 122.306 43.8168 122.036C43.8168 121.766 43.7684 121.511 43.6715 121.272C43.5773 121.032 43.4448 120.822 43.2741 120.641C43.106 120.458 42.9111 120.315 42.6894 120.213C42.4678 120.109 42.2296 120.056 41.9748 120.056C41.7201 120.056 41.4819 120.109 41.2602 120.213C41.0386 120.318 40.8424 120.461 40.6717 120.645C40.5036 120.826 40.3711 121.036 40.2743 121.275C40.18 121.512 40.1329 121.766 40.1329 122.036C40.1329 122.309 40.18 122.565 40.2743 122.804C40.3711 123.041 40.5036 123.251 40.6717 123.435C40.8424 123.615 41.0386 123.758 41.2602 123.863C41.4819 123.964 41.7201 124.015 41.9748 124.015ZM45.335 124.711V119.361H47.3031C47.5935 119.361 47.8546 119.432 48.0864 119.575C48.3183 119.718 48.5017 119.91 48.6367 120.152C48.7743 120.391 48.8431 120.659 48.8431 120.954C48.8431 121.204 48.796 121.432 48.7017 121.638C48.61 121.845 48.4801 122.021 48.3119 122.166C48.1463 122.311 47.9565 122.416 47.7425 122.479L49.0342 124.711H48.1132L46.8598 122.552H46.1299V124.711H45.335ZM46.1299 121.757H47.219C47.3718 121.757 47.5107 121.719 47.6355 121.642C47.7629 121.566 47.8635 121.464 47.9374 121.337C48.0113 121.209 48.0482 121.065 48.0482 120.905C48.0482 120.744 48.0113 120.6 47.9374 120.473C47.8635 120.343 47.7629 120.241 47.6355 120.167C47.5107 120.091 47.3718 120.053 47.219 120.053H46.1299V121.757ZM52.7487 119.361H53.685L51.8583 122.296V124.711H51.0635V122.296L49.2406 119.361H50.1769L51.4609 121.428L52.7487 119.361Z" fill="white"/>
<circle cx="288.09" cy="249.413" r="34.0356" fill="#E83526"/>
<circle cx="288.09" cy="249.413" r="34.0356" fill="url(#paint5_linear_1030_3959)"/>
<path d="M271.324 252.187C270.963 252.187 270.622 252.116 270.304 251.973C269.986 251.828 269.705 251.629 269.463 251.377C269.224 251.122 269.035 250.827 268.898 250.491C268.763 250.154 268.695 249.795 268.695 249.413C268.695 249.031 268.763 248.672 268.898 248.335C269.035 247.999 269.224 247.705 269.463 247.452C269.705 247.198 269.986 246.999 270.304 246.856C270.622 246.711 270.963 246.639 271.324 246.639C271.757 246.639 272.156 246.739 272.52 246.94C272.885 247.142 273.187 247.409 273.426 247.743L272.719 248.121C272.554 247.912 272.348 247.745 272.104 247.621C271.859 247.496 271.599 247.433 271.324 247.433C271.07 247.433 270.831 247.486 270.61 247.59C270.388 247.695 270.193 247.837 270.025 248.018C269.857 248.199 269.726 248.409 269.631 248.649C269.537 248.888 269.49 249.143 269.49 249.413C269.49 249.685 269.537 249.942 269.631 250.181C269.726 250.418 269.857 250.628 270.025 250.812C270.196 250.992 270.392 251.135 270.614 251.24C270.835 251.341 271.072 251.392 271.324 251.392C271.605 251.392 271.866 251.33 272.108 251.205C272.352 251.078 272.556 250.91 272.719 250.701L273.426 251.087C273.187 251.42 272.885 251.688 272.52 251.889C272.156 252.088 271.757 252.187 271.324 252.187ZM275.865 246.738H276.794L278.739 252.088H277.898L277.527 251.071H275.131L274.764 252.088H273.92L275.865 246.738ZM275.425 250.277H277.233L276.327 247.793L275.425 250.277ZM282.844 246.738V247.533H281.14V252.088H280.345V247.533H278.644V246.738H282.844ZM283.611 252.088V246.738H286.932V247.533H284.406V248.824H286.439V249.619H284.406V251.293H286.932V252.088H283.611ZM290.211 252.187C289.839 252.187 289.493 252.116 289.172 251.973C288.854 251.828 288.575 251.628 288.335 251.373C288.098 251.116 287.912 250.819 287.777 250.483C287.645 250.147 287.578 249.789 287.578 249.409C287.578 249.009 287.65 248.641 287.792 248.305C287.935 247.968 288.13 247.677 288.377 247.43C288.624 247.18 288.906 246.986 289.222 246.849C289.54 246.711 289.874 246.642 290.223 246.642C290.618 246.642 290.997 246.734 291.362 246.917C291.726 247.101 292.043 247.376 292.313 247.743L291.602 248.129C291.419 247.9 291.205 247.726 290.96 247.609C290.718 247.492 290.47 247.433 290.215 247.433C289.968 247.433 289.734 247.484 289.512 247.586C289.29 247.686 289.094 247.826 288.924 248.007C288.753 248.185 288.618 248.395 288.519 248.637C288.422 248.877 288.373 249.138 288.373 249.421C288.373 249.693 288.42 249.949 288.515 250.189C288.612 250.428 288.744 250.638 288.912 250.819C289.083 250.998 289.279 251.138 289.501 251.24C289.725 251.341 289.964 251.392 290.219 251.392C290.408 251.392 290.588 251.362 290.762 251.301C290.935 251.24 291.095 251.153 291.243 251.041C291.394 250.926 291.525 250.79 291.637 250.632C291.749 250.474 291.838 250.298 291.904 250.105H290.769V249.401H292.837C292.842 249.784 292.776 250.143 292.638 250.479C292.503 250.815 292.315 251.112 292.072 251.369C291.833 251.624 291.554 251.824 291.236 251.969C290.917 252.115 290.576 252.187 290.211 252.187ZM296.03 252.187C295.668 252.187 295.328 252.116 295.009 251.973C294.691 251.828 294.41 251.628 294.168 251.373C293.926 251.119 293.737 250.824 293.599 250.491C293.462 250.154 293.393 249.795 293.393 249.413C293.393 249.031 293.462 248.673 293.599 248.339C293.737 248.003 293.926 247.707 294.168 247.452C294.41 247.198 294.691 246.999 295.009 246.856C295.328 246.711 295.668 246.639 296.03 246.639C296.394 246.639 296.735 246.711 297.054 246.856C297.372 246.999 297.652 247.198 297.894 247.452C298.136 247.707 298.325 248.003 298.46 248.339C298.598 248.673 298.666 249.031 298.666 249.413C298.666 249.795 298.598 250.154 298.46 250.491C298.325 250.824 298.136 251.119 297.894 251.373C297.652 251.628 297.372 251.828 297.054 251.973C296.735 252.116 296.394 252.187 296.03 252.187ZM296.03 251.392C296.284 251.392 296.522 251.34 296.744 251.236C296.966 251.131 297.161 250.989 297.329 250.808C297.499 250.624 297.632 250.414 297.726 250.177C297.823 249.938 297.871 249.683 297.871 249.413C297.871 249.143 297.823 248.888 297.726 248.649C297.632 248.409 297.499 248.199 297.329 248.018C297.161 247.835 296.966 247.692 296.744 247.59C296.522 247.486 296.284 247.433 296.03 247.433C295.775 247.433 295.537 247.486 295.315 247.59C295.093 247.695 294.897 247.838 294.726 248.022C294.558 248.203 294.426 248.413 294.329 248.652C294.235 248.889 294.188 249.143 294.188 249.413C294.188 249.685 294.235 249.942 294.329 250.181C294.426 250.418 294.558 250.628 294.726 250.812C294.897 250.992 295.093 251.135 295.315 251.24C295.537 251.341 295.775 251.392 296.03 251.392ZM299.39 252.088V246.738H301.358C301.648 246.738 301.909 246.809 302.141 246.952C302.373 247.095 302.556 247.287 302.691 247.529C302.829 247.768 302.898 248.036 302.898 248.331C302.898 248.581 302.851 248.809 302.756 249.015C302.665 249.222 302.535 249.398 302.367 249.543C302.201 249.688 302.011 249.792 301.797 249.856L303.089 252.088H302.168L300.914 249.929H300.185V252.088H299.39ZM300.185 249.134H301.274C301.427 249.134 301.565 249.096 301.69 249.019C301.818 248.943 301.918 248.841 301.992 248.714C302.066 248.586 302.103 248.442 302.103 248.282C302.103 248.121 302.066 247.977 301.992 247.85C301.918 247.72 301.818 247.618 301.69 247.544C301.565 247.468 301.427 247.43 301.274 247.43H300.185V249.134ZM306.803 246.738H307.74L305.913 249.673V252.088H305.118V249.673L303.295 246.738H304.232L305.516 248.805L306.803 246.738Z" fill="white"/>
<path d="M369 298.874C400.86 279.004 430.915 256.541 463.592 237.918C475.217 231.293 487.458 225.553 498.771 218.383C500.876 217.048 506.336 214.107 504.059 213.095C497.523 210.19 485.395 213.856 478.721 215.004C472.494 216.076 466.243 215.122 459.994 215.665C456.586 215.962 465.328 222.773 466.236 223.891C472.561 231.675 477.781 241.056 482.393 249.962C486.904 258.673 487.277 248.021 488.783 242.324C491.598 231.675 494.734 223.374 502.516 215.592" stroke="#F59656" stroke-width="4" stroke-linecap="round"/>
<path d="M122.736 138.73C102.887 106.856 85.8021 73.4494 64.6714 42.335C57.1545 31.2666 48.6942 20.7206 41.697 9.29977C40.3948 7.17429 36.7887 2.1286 39.2795 2.22327C46.4266 2.49488 55.6987 11.1287 61.1843 15.0997C66.3025 18.8048 72.3349 20.7027 77.7054 23.9435C80.6343 25.711 69.7856 27.9741 68.4776 28.5776C59.37 32.7795 50.5512 38.9013 42.4871 44.8649C34.5998 50.6976 38.9583 40.9708 40.116 35.1933C42.2802 24.3924 43.122 15.5594 39.564 5.14434" stroke="#F59656" stroke-width="4" stroke-linecap="round"/>
<defs>
<linearGradient id="paint0_linear_1030_3959" x1="158.473" y1="105" x2="204.54" y2="106.826" gradientUnits="userSpaceOnUse">
<stop stop-color="#FF5C00"/>
<stop offset="1" stop-color="#E83526"/>
</linearGradient>
<linearGradient id="paint1_linear_1030_3959" x1="73.4731" y1="167" x2="119.54" y2="168.826" gradientUnits="userSpaceOnUse">
<stop stop-color="#FF5C00"/>
<stop offset="1" stop-color="#E83526"/>
</linearGradient>
<linearGradient id="paint2_linear_1030_3959" x1="331.32" y1="165" x2="377.387" y2="166.826" gradientUnits="userSpaceOnUse">
<stop stop-color="#FF5C00"/>
<stop offset="1" stop-color="#E83526"/>
</linearGradient>
<linearGradient id="paint3_linear_1030_3959" x1="420.473" y1="85" x2="466.54" y2="86.826" gradientUnits="userSpaceOnUse">
<stop stop-color="#FF5C00"/>
<stop offset="1" stop-color="#E83526"/>
</linearGradient>
<linearGradient id="paint4_linear_1030_3959" x1="9.47312" y1="88" x2="55.5399" y2="89.826" gradientUnits="userSpaceOnUse">
<stop stop-color="#FF5C00"/>
<stop offset="1" stop-color="#E83526"/>
</linearGradient>
<linearGradient id="paint5_linear_1030_3959" x1="263.528" y1="215.377" x2="309.595" y2="217.203" gradientUnits="userSpaceOnUse">
<stop stop-color="#FF5C00"/>
<stop offset="1" stop-color="#E83526"/>
</linearGradient>
</defs>
</svg>
