<svg width="1512" height="723" viewBox="0 0 1512 723" fill="none" xmlns="http://www.w3.org/2000/svg">
<path d="M527.25 85.0005C527.25 85.0005 523.344 85.3085 523.008 90.7129C522.672 96.1172 522.644 111.798 529.98 112.764C537.317 113.73 532.038 87.0026 532.038 87.0026L527.25 85.0005Z" fill="#1C2226"/>
<path d="M552.731 89.8446C552.731 89.8446 555.699 98.1191 549.777 99.6312C543.841 101.143 544.947 89.1445 544.947 89.1445L552.731 89.8446Z" fill="#1C2226"/>
<path d="M518.989 141.816L500.634 167.689L501.656 165.267L493.186 203.238L483.749 201.474L489.587 163.013C489.713 162.173 490.035 161.417 490.483 160.773L490.609 160.591L508.965 134.717L518.989 141.816Z" fill="#FCC9A7"/>
<path d="M486.158 214.887C481.328 213.445 478.597 208.348 480.04 203.532C481.482 198.702 486.578 195.972 491.394 197.414C496.225 198.856 498.955 203.952 497.513 208.768C496.071 213.585 490.988 216.329 486.158 214.887Z" fill="#FCC9A7"/>
<path d="M558.724 140.934L570.331 176.412L564.1 172.184L601.903 171.162L602.505 180.753L564.87 184.463C562.07 184.743 559.55 183.007 558.71 180.445L558.64 180.235L547.033 144.756L558.724 140.934Z" fill="#FCC9A7"/>
<path d="M556.666 322.4L562.35 338.067L570.667 330.59L565.361 318.031L556.666 322.4Z" fill="#FCC9A7"/>
<path d="M559.06 334.44C559.06 333.67 559.718 333.166 560.376 333.446C561.664 333.992 563.806 334.468 566.34 333.334C568.986 332.144 569.476 330.198 569.476 328.91C569.476 328.238 569.952 327.734 570.568 327.818L589.932 330.604C591.108 330.772 592.214 331.458 592.998 332.508C593.74 333.488 593.39 334.93 592.354 335.238L563.442 344.031C562.308 344.381 561.076 343.555 560.74 342.239L559.102 335.77C559.074 335.658 559.06 335.546 559.06 335.448V334.44Z" fill="#1F252A"/>
<path d="M481.061 311.759L474.761 324.094L482.097 330.366L490.022 315.567L481.061 311.759Z" fill="#FCC9A7"/>
<path d="M473.444 321.377C474.032 320.887 474.844 321.055 475.054 321.741C475.475 323.085 476.483 325.017 479.003 326.221C481.621 327.467 483.427 326.571 484.407 325.745C484.925 325.311 485.625 325.353 485.947 325.871L496.364 342.434C496.994 343.442 497.19 344.717 496.896 345.991C496.63 347.195 495.314 347.853 494.39 347.265L468.964 330.912C467.97 330.268 467.788 328.798 468.572 327.691L472.45 322.259C472.52 322.175 472.59 322.091 472.674 322.021L473.444 321.377Z" fill="#1F252A"/>
<path d="M550.239 196.055L525.374 265.038L490.175 323.365L474.48 315.609L505.772 257.463L522.938 199.303L550.239 196.055Z" fill="#092330"/>
<path d="M511.821 197.077C511.821 197.077 507.117 205.968 514.425 220.179L537.121 263.484L554.412 329.12L571.591 323.127L555.154 256.749L537.387 204.96L550.254 196.069L511.821 197.077Z" fill="#0C2C40"/>
<path d="M533.228 120.437L513.865 124.413C511.583 124.875 509.567 126.191 508.208 128.081L495.888 145.246L512.353 156.013L506.416 203.014C506.416 203.014 513.123 223.539 554.033 207.172C554.033 207.172 550.505 168.222 552.871 142.852L551.667 126.149L533.228 120.437Z" fill="#DF945B"/>
<path d="M551.681 126.135L554.901 127.311C557.561 128.277 559.634 130.419 560.516 133.121L567.222 153.577L547.509 157.217L551.681 126.135Z" fill="#DF945B"/>
<path d="M614.476 173.22C614.476 178.26 610.387 182.349 605.347 182.349C600.307 182.349 596.232 178.26 596.232 173.22C596.232 168.18 600.321 164.105 605.347 164.105C610.387 164.105 614.476 168.18 614.476 173.22Z" fill="#FCC9A7"/>
<path d="M538.703 126.359L536.505 127.577C532.235 127.227 528.216 126.317 528.566 122.047L529.588 109.53L545.059 110.804L544.037 123.321C543.687 127.591 542.973 126.709 538.703 126.359Z" fill="#FCC9A7"/>
<path d="M529.378 111.042C529.378 111.042 531.506 120.31 539.291 119.988C546.095 119.694 545.451 109.53 545.451 109.53L529.378 111.042Z" fill="#F4BE9A"/>
<path d="M537.961 116.698L536.644 116.558C530.064 115.844 525.304 109.936 526.004 103.341L526.816 95.8369C527.53 89.2565 533.438 84.4962 540.033 85.1962L541.349 85.3362C547.929 86.0503 552.69 91.9587 551.989 98.5531L551.177 106.058C550.463 112.638 544.555 117.398 537.961 116.698Z" fill="#FCC9A7"/>
<path d="M534.958 106.419C537.151 108.479 542.269 111.363 545.194 106.419" stroke="#F59656" stroke-width="1.40009"/>
<path d="M513.487 152.736L518.472 146.856" stroke="#CE804A" stroke-width="1.07709" stroke-miterlimit="10" stroke-linecap="round" stroke-linejoin="round"/>
<path d="M552.13 156.363L552.886 144.224" stroke="#CE804A" stroke-width="1.07709" stroke-miterlimit="10" stroke-linecap="round" stroke-linejoin="round"/>
<path d="M538.703 126.359L528.874 120.422C524.674 118.672 522 122.732 522 122.732L533.705 134.213L538.703 126.359Z" fill="#EDA472"/>
<path d="M538.702 126.359L543.462 133.724L548.223 125.057C548.223 125.057 546.347 122.103 543.784 122.789L538.702 126.359Z" fill="#EDA472"/>
<path d="M527.6 101.549H531.618L532.403 97.1391C532.403 97.1391 536.603 94.885 535.791 90.5307C535.791 90.5307 553.474 96.8731 556.232 89.8166C559.872 80.506 546.669 78.1959 535.791 78.4619C524.912 78.7139 525.696 92.6028 525.696 92.6028L527.6 101.549Z" fill="#1C2226"/>
<path d="M529.951 100.667C529.699 103.02 527.585 104.714 525.233 104.462C522.881 104.21 521.187 102.096 521.439 99.7434C521.691 97.3912 523.805 95.6971 526.157 95.9492C528.509 96.2012 530.203 98.3153 529.951 100.667Z" fill="#FCC9A7"/>
<ellipse cx="545.089" cy="99.4432" rx="1.40009" ry="2.80018" fill="#CF621A"/>
<ellipse cx="538.089" cy="99.4432" rx="1.40009" ry="2.80018" fill="#CF621A"/>
<path d="M549.287 96.1839C547.727 94.9556 546.948 94.1367 543.828 94.1367" stroke="#F59656" stroke-width="1.40009"/>
<path d="M534.275 96.1839C535.835 94.9556 536.615 94.1367 539.734 94.1367" stroke="#F59656" stroke-width="1.40009"/>
<rect width="195.948" height="304.476" transform="matrix(-0.996034 0.0889683 0.0889683 0.996034 870.711 109.351)" fill="#585858"/>
<path d="M727.762 371.937L732.76 427.89L890.81 413.772L727.762 371.937Z" fill="#262626"/>
<path fill-rule="evenodd" clip-rule="evenodd" d="M655.339 81.8779L905.682 59.5166L936.957 409.651L890.81 413.772L872.983 214.19C869.085 170.546 830.543 138.325 786.899 142.224C743.255 146.122 711.034 184.663 714.932 228.308L732.76 427.89L686.614 432.012L655.339 81.8779Z" fill="#8E8E8E"/>
<path d="M360.067 46.1045C360.067 46.1045 356.16 46.4125 355.824 51.8169C355.488 57.2212 355.46 72.9022 362.797 73.8683C370.133 74.8343 364.855 48.1067 364.855 48.1067L360.067 46.1045Z" fill="#1C2226"/>
<path d="M385.548 50.9486C385.548 50.9486 388.516 59.2231 382.593 60.7352C376.657 62.2473 377.763 50.2485 377.763 50.2485L385.548 50.9486Z" fill="#1C2226"/>
<path d="M351.806 102.92L333.45 128.793L334.473 126.371L326.002 164.342L316.565 162.578L322.404 124.117C322.53 123.277 322.852 122.521 323.3 121.877L323.426 121.695L341.781 95.8213L351.806 102.92Z" fill="#FCC9A7"/>
<path d="M318.974 175.991C314.144 174.549 311.414 169.452 312.856 164.636C314.298 159.806 319.394 157.076 324.211 158.518C329.041 159.96 331.771 165.056 330.329 169.872C328.887 174.689 323.805 177.433 318.974 175.991Z" fill="#FCC9A7"/>
<path d="M391.54 102.038L403.147 137.516L396.917 133.288L434.719 132.266L435.321 141.857L397.687 145.567C394.887 145.847 392.366 144.111 391.526 141.549L391.456 141.339L379.85 105.86L391.54 102.038Z" fill="#FCC9A7"/>
<path d="M389.482 283.504L395.167 299.171L403.483 291.694L398.177 279.135L389.482 283.504Z" fill="#FCC9A7"/>
<path d="M391.876 295.544C391.876 294.774 392.534 294.27 393.192 294.55C394.48 295.096 396.622 295.572 399.156 294.438C401.803 293.248 402.293 291.302 402.293 290.014C402.293 289.342 402.769 288.838 403.385 288.922L422.748 291.708C423.924 291.876 425.03 292.562 425.814 293.612C426.556 294.592 426.206 296.034 425.17 296.342L396.258 305.135C395.124 305.485 393.892 304.659 393.556 303.343L391.918 296.874C391.89 296.762 391.876 296.65 391.876 296.552V295.544Z" fill="#1F252A"/>
<path d="M313.878 272.863L307.577 285.198L314.914 291.47L322.838 276.671L313.878 272.863Z" fill="#FCC9A7"/>
<path d="M306.261 282.481C306.849 281.991 307.661 282.159 307.871 282.845C308.291 284.189 309.299 286.121 311.819 287.325C314.437 288.571 316.243 287.675 317.223 286.849C317.741 286.415 318.442 286.457 318.764 286.975L329.18 303.538C329.81 304.546 330.006 305.821 329.712 307.095C329.446 308.299 328.13 308.957 327.206 308.369L301.78 292.016C300.786 291.372 300.604 289.902 301.388 288.795L305.267 283.363C305.337 283.279 305.407 283.195 305.491 283.125L306.261 282.481Z" fill="#1F252A"/>
<path d="M383.056 157.159L358.19 226.142L322.992 284.469L307.297 276.713L338.589 218.567L355.754 160.407L383.056 157.159Z" fill="#092330"/>
<path d="M344.638 158.181C344.638 158.181 339.933 167.072 347.242 181.283L369.937 224.588L387.228 290.224L404.407 284.231L387.97 217.853L370.203 166.064L383.07 157.173L344.638 158.181Z" fill="#0C2C40"/>
<path d="M366.044 81.5405L346.681 85.5168C344.399 85.9788 342.383 87.2949 341.025 89.185L328.704 106.35L345.169 117.117L339.233 164.118C339.233 164.118 345.939 184.643 386.85 168.276C386.85 168.276 383.322 129.326 385.688 103.956L384.484 87.2529L366.044 81.5405Z" fill="#DF945B"/>
<path d="M384.497 87.2393L387.718 88.4153C390.378 89.3814 392.45 91.5236 393.332 94.2257L400.038 114.681L380.325 118.321L384.497 87.2393Z" fill="#DF945B"/>
<path d="M447.292 134.324C447.292 139.364 443.204 143.452 438.163 143.452C433.123 143.452 429.049 139.364 429.049 134.324C429.049 129.283 433.137 125.209 438.163 125.209C443.204 125.209 447.292 129.283 447.292 134.324Z" fill="#FCC9A7"/>
<path d="M371.519 87.4628L369.321 88.6809C365.051 88.3309 361.033 87.4209 361.383 83.1506L362.405 70.6338L377.876 71.9079L376.854 84.4247C376.504 88.6949 375.79 87.8129 371.519 87.4628Z" fill="#FCC9A7"/>
<path d="M362.194 72.1459C362.194 72.1459 364.322 81.4145 372.107 81.0925C378.911 80.7984 378.267 70.6338 378.267 70.6338L362.194 72.1459Z" fill="#F4BE9A"/>
<path d="M370.777 77.8022L369.461 77.6622C362.88 76.9482 358.12 71.0398 358.82 64.4454L359.632 56.9409C360.346 50.3605 366.255 45.6002 372.849 46.3002L374.165 46.4403C380.746 47.1543 385.506 53.0627 384.806 59.6571L383.994 67.1615C383.28 73.742 377.371 78.5023 370.777 77.8022Z" fill="#FCC9A7"/>
<path d="M367.774 67.5234C369.968 69.5832 375.086 72.4668 378.01 67.5234" stroke="#F59656" stroke-width="1.40009"/>
<path d="M346.304 113.84L351.288 107.96" stroke="#CE804A" stroke-width="1.07709" stroke-miterlimit="10" stroke-linecap="round" stroke-linejoin="round"/>
<path d="M384.946 117.467L385.702 105.328" stroke="#CE804A" stroke-width="1.07709" stroke-miterlimit="10" stroke-linecap="round" stroke-linejoin="round"/>
<path d="M371.519 87.4627L361.691 81.5263C357.491 79.7762 354.816 83.8365 354.816 83.8365L366.521 95.3172L371.519 87.4627Z" fill="#EDA472"/>
<path d="M371.519 87.4631L376.279 94.8276L381.039 86.161C381.039 86.161 379.163 83.2069 376.601 83.8929L371.519 87.4631Z" fill="#EDA472"/>
<path d="M360.417 62.6534H364.435L365.219 58.2431C365.219 58.2431 369.419 55.989 368.607 51.6347C368.607 51.6347 386.29 57.9771 389.048 50.9206C392.689 41.61 379.486 39.2999 368.607 39.5659C357.728 39.8179 358.512 53.7068 358.512 53.7068L360.417 62.6534Z" fill="#1C2226"/>
<path d="M362.768 61.7715C362.516 64.1236 360.402 65.8177 358.05 65.5657C355.697 65.3137 354.003 63.1995 354.255 60.8474C354.507 58.4952 356.621 56.8011 358.974 57.0532C361.326 57.3052 363.02 59.4193 362.768 61.7715Z" fill="#FCC9A7"/>
<ellipse cx="377.905" cy="60.5472" rx="1.40009" ry="2.80018" fill="#CF621A"/>
<ellipse cx="370.905" cy="60.5472" rx="1.40009" ry="2.80018" fill="#CF621A"/>
<path d="M382.104 57.2879C380.544 56.0596 379.764 55.2407 376.644 55.2407" stroke="#F59656" stroke-width="1.40009"/>
<path d="M367.092 57.2879C368.652 56.0596 369.431 55.2407 372.551 55.2407" stroke="#F59656" stroke-width="1.40009"/>
<path d="M205.166 45.4224C205.166 45.4224 201.26 45.7304 200.924 51.1347C200.588 56.5391 200.56 72.2201 207.896 73.1861C215.233 74.1522 209.954 47.4245 209.954 47.4245L205.166 45.4224Z" fill="#1C2226"/>
<path d="M230.647 50.2665C230.647 50.2665 233.615 58.541 227.693 60.0531C221.757 61.5652 222.863 49.5664 222.863 49.5664L230.647 50.2665Z" fill="#1C2226"/>
<path d="M196.905 102.238L178.55 128.111L179.572 125.689L171.102 163.66L161.665 161.895L167.503 123.435C167.629 122.595 167.951 121.839 168.399 121.195L168.525 121.013L186.881 95.1392L196.905 102.238Z" fill="#FCC9A7"/>
<path d="M164.074 175.309C159.244 173.867 156.514 168.77 157.956 163.954C159.398 159.124 164.494 156.393 169.31 157.835C174.141 159.278 176.871 164.374 175.429 169.19C173.987 174.007 168.904 176.751 164.074 175.309Z" fill="#FCC9A7"/>
<path d="M236.64 101.356L248.247 136.834L242.016 132.606L279.819 131.584L280.421 141.174L242.786 144.885C239.986 145.165 237.466 143.429 236.626 140.866L236.556 140.656L224.949 105.178L236.64 101.356Z" fill="#FCC9A7"/>
<path d="M234.581 282.821L240.265 298.488L248.582 291.012L243.276 278.453L234.581 282.821Z" fill="#FCC9A7"/>
<path d="M236.976 294.862C236.976 294.092 237.634 293.588 238.292 293.868C239.58 294.414 241.722 294.89 244.256 293.756C246.902 292.566 247.392 290.62 247.392 289.332C247.392 288.66 247.868 288.156 248.484 288.24L267.848 291.026C269.024 291.194 270.13 291.88 270.914 292.93C271.656 293.91 271.306 295.352 270.27 295.66L241.358 304.453C240.224 304.803 238.992 303.977 238.656 302.661L237.018 296.192C236.99 296.08 236.976 295.968 236.976 295.87V294.862Z" fill="#1F252A"/>
<path d="M158.976 272.181L152.676 284.515L160.012 290.788L167.937 275.989L158.976 272.181Z" fill="#FCC9A7"/>
<path d="M151.36 281.799C151.948 281.309 152.76 281.477 152.97 282.163C153.391 283.507 154.399 285.439 156.919 286.643C159.537 287.889 161.343 286.993 162.323 286.167C162.841 285.733 163.541 285.775 163.863 286.293L174.28 302.856C174.91 303.864 175.106 305.138 174.812 306.412C174.546 307.617 173.23 308.275 172.306 307.687L146.88 291.334C145.886 290.69 145.704 289.219 146.488 288.113L150.366 282.681C150.436 282.597 150.506 282.513 150.59 282.443L151.36 281.799Z" fill="#1F252A"/>
<path d="M228.155 156.477L203.29 225.459L168.091 283.787L152.396 276.031L183.688 217.885L200.854 159.725L228.155 156.477Z" fill="#092330"/>
<path d="M189.737 157.499C189.737 157.499 185.033 166.39 192.341 180.601L215.037 223.905L232.328 289.542L249.507 283.549L233.07 217.171L215.303 165.382L228.17 156.491L189.737 157.499Z" fill="#0C2C40"/>
<path d="M211.144 80.8584L191.781 84.8347C189.499 85.2967 187.483 86.6128 186.124 88.5029L173.804 105.668L190.269 116.435L184.332 163.436C184.332 163.436 191.039 183.961 231.949 167.594C231.949 167.594 228.421 128.643 230.787 103.274L229.583 86.5708L211.144 80.8584Z" fill="#DF945B"/>
<path d="M229.597 86.5571L232.817 87.7332C235.477 88.6993 237.55 90.8414 238.432 93.5436L245.138 113.999L225.425 117.639L229.597 86.5571Z" fill="#DF945B"/>
<path d="M292.392 133.642C292.392 138.682 288.303 142.77 283.263 142.77C278.223 142.77 274.148 138.682 274.148 133.642C274.148 128.602 278.237 124.527 283.263 124.527C288.303 124.527 292.392 128.602 292.392 133.642Z" fill="#FCC9A7"/>
<path d="M216.619 86.7807L214.421 87.9988C210.151 87.6488 206.132 86.7387 206.482 82.4685L207.504 69.9517L222.975 71.2257L221.953 83.7425C221.603 88.0128 220.889 87.1307 216.619 86.7807Z" fill="#FCC9A7"/>
<path d="M207.294 71.4637C207.294 71.4637 209.422 80.7323 217.207 80.4103C224.011 80.1163 223.367 69.9517 223.367 69.9517L207.294 71.4637Z" fill="#F4BE9A"/>
<path d="M215.877 77.1201L214.561 76.9801C207.98 76.266 203.22 70.3577 203.92 63.7632L204.732 56.2588C205.446 49.6784 211.354 44.9181 217.949 45.6181L219.265 45.7581C225.845 46.4722 230.606 52.3805 229.906 58.975L229.093 66.4794C228.379 73.0598 222.471 77.8201 215.877 77.1201Z" fill="#FCC9A7"/>
<path d="M212.874 66.8413C215.067 68.901 220.185 71.7847 223.11 66.8413" stroke="#F59656" stroke-width="1.40009"/>
<path d="M191.403 113.158L196.388 107.278" stroke="#CE804A" stroke-width="1.07709" stroke-miterlimit="10" stroke-linecap="round" stroke-linejoin="round"/>
<path d="M230.046 116.785L230.802 104.646" stroke="#CE804A" stroke-width="1.07709" stroke-miterlimit="10" stroke-linecap="round" stroke-linejoin="round"/>
<path d="M216.619 86.7806L206.79 80.8442C202.59 79.0941 199.916 83.1543 199.916 83.1543L211.621 94.6351L216.619 86.7806Z" fill="#EDA472"/>
<path d="M216.618 86.781L221.378 94.1455L226.139 85.4789C226.139 85.4789 224.263 82.5247 221.7 83.2108L216.618 86.781Z" fill="#EDA472"/>
<path d="M205.515 61.9712H209.534L210.318 57.561C210.318 57.561 214.518 55.3068 213.706 50.9526C213.706 50.9526 231.389 57.2949 234.147 50.2385C237.787 40.9279 224.584 38.6178 213.706 38.8838C202.827 39.1358 203.611 53.0247 203.611 53.0247L205.515 61.9712Z" fill="#1C2226"/>
<path d="M207.867 61.0893C207.615 63.4415 205.501 65.1356 203.149 64.8836C200.797 64.6316 199.103 62.5174 199.355 60.1653C199.607 57.8131 201.721 56.119 204.073 56.371C206.425 56.623 208.119 58.7372 207.867 61.0893Z" fill="#FCC9A7"/>
<ellipse cx="223.005" cy="59.8651" rx="1.40009" ry="2.80018" fill="#CF621A"/>
<ellipse cx="216.005" cy="59.8651" rx="1.40009" ry="2.80018" fill="#CF621A"/>
<path d="M227.203 56.6057C225.643 55.3775 224.864 54.5586 221.744 54.5586" stroke="#F59656" stroke-width="1.40009"/>
<path d="M212.191 56.6057C213.751 55.3775 214.531 54.5586 217.65 54.5586" stroke="#F59656" stroke-width="1.40009"/>
<path d="M749.707 169.274C749.707 169.274 745.801 169.582 745.465 174.987C745.129 180.391 745.101 196.072 752.437 197.038C759.774 198.004 754.495 171.277 754.495 171.277L749.707 169.274Z" fill="#1C2226"/>
<path d="M775.188 174.119C775.188 174.119 778.156 182.393 772.234 183.905C766.298 185.417 767.404 173.418 767.404 173.418L775.188 174.119Z" fill="#1C2226"/>
<path d="M741.446 226.09L723.091 251.963L724.113 249.541L715.643 287.512L706.206 285.747L712.044 247.287C712.17 246.447 712.492 245.691 712.94 245.047L713.066 244.865L731.422 218.991L741.446 226.09Z" fill="#CEFB6E"/>
<path d="M708.615 299.161C703.785 297.719 701.055 292.622 702.497 287.806C703.939 282.976 709.035 280.245 713.851 281.688C718.682 283.13 721.412 288.226 719.97 293.042C718.528 297.859 713.445 300.603 708.615 299.161Z" fill="#CEFB6E"/>
<path d="M781.181 225.208L792.788 260.686L786.557 256.458L824.36 255.436L824.962 265.027L787.327 268.737C784.527 269.017 782.007 267.281 781.167 264.719L781.097 264.509L769.49 229.03L781.181 225.208Z" fill="#CEFB6E"/>
<path d="M779.123 406.673L784.807 422.34L793.124 414.864L787.818 402.305L779.123 406.673Z" fill="#CEFB6E"/>
<path d="M781.517 418.714C781.517 417.944 782.175 417.44 782.833 417.72C784.121 418.266 786.263 418.742 788.797 417.608C791.443 416.418 791.933 414.472 791.933 413.184C791.933 412.512 792.409 412.008 793.025 412.092L812.389 414.878C813.565 415.046 814.671 415.732 815.455 416.782C816.197 417.762 815.847 419.204 814.811 419.512L785.899 428.305C784.765 428.655 783.533 427.829 783.197 426.513L781.559 420.044C781.531 419.932 781.517 419.82 781.517 419.722V418.714Z" fill="#1F252A"/>
<path d="M703.518 396.033L697.218 408.367L704.554 414.64L712.479 399.841L703.518 396.033Z" fill="#CEFB6E"/>
<path d="M695.901 405.651C696.489 405.161 697.301 405.329 697.512 406.015C697.932 407.359 698.94 409.291 701.46 410.495C704.078 411.741 705.884 410.845 706.864 410.019C707.382 409.585 708.082 409.627 708.404 410.145L718.821 426.708C719.451 427.716 719.647 428.99 719.353 430.265C719.087 431.469 717.771 432.127 716.847 431.539L691.421 415.186C690.427 414.542 690.245 413.071 691.029 411.965L694.907 406.533C694.977 406.449 695.047 406.365 695.131 406.295L695.901 405.651Z" fill="#1F252A"/>
<path d="M772.696 280.329L747.831 349.312L712.632 407.639L696.938 399.883L728.229 341.737L745.395 283.577L772.696 280.329Z" fill="#092330"/>
<path d="M734.278 281.351C734.278 281.351 729.574 290.242 736.882 304.453L759.578 347.758L776.869 413.394L794.048 407.401L777.611 341.023L759.844 289.234L772.711 280.343L734.278 281.351Z" fill="#0C2C40"/>
<path d="M755.685 204.71L736.322 208.687C734.04 209.149 732.024 210.465 730.665 212.355L718.345 229.52L734.81 240.287L728.873 287.288C728.873 287.288 735.58 307.813 776.49 291.446C776.49 291.446 772.962 252.495 775.328 227.126L774.124 210.423L755.685 204.71Z" fill="#DF945B"/>
<path d="M774.138 210.409L777.358 211.585C780.018 212.551 782.091 214.693 782.973 217.396L789.679 237.851L769.966 241.491L774.138 210.409Z" fill="#DF945B"/>
<path d="M836.933 257.493C836.933 262.534 832.844 266.622 827.804 266.622C822.764 266.622 818.689 262.534 818.689 257.493C818.689 252.453 822.778 248.379 827.804 248.379C832.844 248.379 836.933 252.453 836.933 257.493Z" fill="#CEFB6E"/>
<path d="M761.16 210.633L758.962 211.851C754.692 211.501 750.673 210.591 751.023 206.321L752.045 193.804L767.516 195.078L766.494 207.595C766.144 211.865 765.43 210.983 761.16 210.633Z" fill="#CEFB6E"/>
<path d="M751.835 195.316C751.835 195.316 753.963 204.584 761.748 204.262C768.552 203.968 767.908 193.804 767.908 193.804L751.835 195.316Z" fill="#F4BE9A"/>
<path d="M760.418 200.972L759.102 200.832C752.521 200.118 747.761 194.21 748.461 187.615L749.273 180.111C749.987 173.53 755.895 168.77 762.49 169.47L763.806 169.61C770.386 170.324 775.147 176.233 774.447 182.827L773.634 190.331C772.92 196.912 767.012 201.672 760.418 200.972Z" fill="#CEFB6E"/>
<path d="M757.745 194.218C759.845 192.584 764.746 190.298 767.546 194.218" stroke="#F59656" stroke-width="1.40009"/>
<path d="M735.944 237.01L740.929 231.13" stroke="#CE804A" stroke-width="1.07709" stroke-miterlimit="10" stroke-linecap="round" stroke-linejoin="round"/>
<path d="M774.587 240.637L775.343 228.498" stroke="#CE804A" stroke-width="1.07709" stroke-miterlimit="10" stroke-linecap="round" stroke-linejoin="round"/>
<path d="M761.16 210.633L751.331 204.696C747.131 202.946 744.457 207.006 744.457 207.006L756.162 218.487L761.16 210.633Z" fill="#EDA472"/>
<path d="M761.159 210.633L765.919 217.998L770.68 209.331C770.68 209.331 768.804 206.377 766.242 207.063L761.159 210.633Z" fill="#EDA472"/>
<path d="M750.057 185.823H754.076L754.86 181.413C754.86 181.413 759.06 179.159 758.248 174.805C758.248 174.805 775.931 181.147 778.689 174.091C782.329 164.78 769.126 162.47 758.248 162.736C747.369 162.988 748.153 176.877 748.153 176.877L750.057 185.823Z" fill="#1C2226"/>
<path d="M752.408 184.941C752.156 187.294 750.042 188.988 747.69 188.736C745.338 188.484 743.644 186.369 743.896 184.017C744.148 181.665 746.262 179.971 748.614 180.223C750.966 180.475 752.661 182.589 752.408 184.941Z" fill="#CEFB6E"/>
<ellipse cx="767.546" cy="183.717" rx="1.40009" ry="2.80018" fill="#CF621A"/>
<path d="M766.146 179.517C767.546 181.617 768.246 183.017 771.046 183.017" stroke="#F59656" stroke-width="1.40009"/>
<path d="M766.146 179.517C767.546 181.617 768.246 183.017 771.046 183.017" stroke="#F59656" stroke-width="1.40009"/>
<ellipse cx="760.546" cy="183.717" rx="1.40009" ry="2.80018" fill="#CF621A"/>
<path d="M761.245 179.517C759.845 181.617 759.145 183.017 756.345 183.017" stroke="#F59656" stroke-width="1.40009"/>
<path d="M765.261 148.728L783.003 157.599L772.426 161.352V170.905C766.967 174.658 762.532 175.682 755.708 170.905C755.708 165.105 755.367 161.693 755.367 161.693L743.084 155.893L765.261 148.728Z" fill="#170F49"/>
<path d="M772.426 161.352L763.555 165.105L755.367 161.693M772.426 161.352L783.003 157.599L765.261 148.728L743.084 155.893L755.367 161.693M772.426 161.352V170.905C766.967 174.658 762.532 175.682 755.708 170.905C755.708 165.105 755.367 161.693 755.367 161.693" stroke="white" stroke-width="0.682382"/>
<path d="M1215.77 299.61C1215.77 299.61 1211.87 299.918 1211.53 305.322C1211.2 310.727 1211.17 326.408 1218.5 327.374C1225.84 328.34 1220.56 301.612 1220.56 301.612L1215.77 299.61Z" fill="#1C2226"/>
<path d="M1241.26 304.454C1241.26 304.454 1244.22 312.728 1238.3 314.241C1232.37 315.753 1233.47 303.754 1233.47 303.754L1241.26 304.454Z" fill="#1C2226"/>
<path d="M1207.51 356.425L1189.16 382.299L1190.18 379.877L1181.71 417.847L1172.27 416.083L1178.11 377.622C1178.24 376.782 1178.56 376.026 1179.01 375.382L1179.13 375.2L1197.49 349.327L1207.51 356.425Z" fill="#CEFB6E"/>
<path d="M1174.68 429.496C1169.85 428.054 1167.12 422.958 1168.56 418.141C1170.01 413.311 1175.1 410.581 1179.92 412.023C1184.75 413.465 1187.48 418.561 1186.04 423.378C1184.6 428.194 1179.51 430.938 1174.68 429.496Z" fill="#CEFB6E"/>
<path d="M1247.25 355.543L1258.86 391.022L1252.62 386.793L1290.43 385.771L1291.03 395.362L1253.39 399.072C1250.59 399.352 1248.07 397.616 1247.23 395.054L1247.16 394.844L1235.56 359.366L1247.25 355.543Z" fill="#CEFB6E"/>
<path d="M1245.19 537.009L1250.87 552.676L1259.19 545.199L1253.89 532.641L1245.19 537.009Z" fill="#CEFB6E"/>
<path d="M1247.58 549.05C1247.58 548.279 1248.24 547.775 1248.9 548.055C1250.19 548.602 1252.33 549.078 1254.86 547.943C1257.51 546.753 1258 544.807 1258 543.519C1258 542.847 1258.48 542.343 1259.09 542.427L1278.46 545.213C1279.63 545.381 1280.74 546.067 1281.52 547.117C1282.26 548.097 1281.91 549.54 1280.88 549.848L1251.97 558.64C1250.83 558.99 1249.6 558.164 1249.26 556.848L1247.63 550.38C1247.6 550.268 1247.58 550.156 1247.58 550.058V549.05Z" fill="#1F252A"/>
<path d="M1169.59 526.368L1163.29 538.703L1170.62 544.975L1178.55 530.176L1169.59 526.368Z" fill="#CEFB6E"/>
<path d="M1161.97 535.986C1162.56 535.496 1163.37 535.664 1163.58 536.35C1164 537.695 1165.01 539.627 1167.53 540.831C1170.15 542.077 1171.95 541.181 1172.93 540.355C1173.45 539.921 1174.15 539.963 1174.47 540.481L1184.89 557.044C1185.52 558.052 1185.71 559.326 1185.42 560.6C1185.15 561.804 1183.84 562.462 1182.91 561.874L1157.49 545.521C1156.49 544.877 1156.31 543.407 1157.1 542.301L1160.97 536.869C1161.04 536.785 1161.11 536.7 1161.2 536.63L1161.97 535.986Z" fill="#1F252A"/>
<path d="M1238.76 410.665L1213.9 479.647L1178.7 537.975L1163 530.218L1194.3 472.072L1211.46 413.913L1238.76 410.665Z" fill="#092330"/>
<path d="M1200.35 411.687C1200.35 411.687 1195.64 420.577 1202.95 434.788L1225.65 478.093L1242.94 543.729L1260.12 537.737L1243.68 471.359L1225.91 419.569L1238.78 410.679L1200.35 411.687Z" fill="#0C2C40"/>
<path d="M1221.75 335.046L1202.39 339.022C1200.11 339.484 1198.09 340.8 1196.73 342.69L1184.41 359.855L1200.88 370.622L1194.94 417.623C1194.94 417.623 1201.65 438.148 1242.56 421.781C1242.56 421.781 1239.03 382.831 1241.4 357.461L1240.19 340.758L1221.75 335.046Z" fill="#DF945B"/>
<path d="M1240.21 340.744L1243.43 341.92C1246.09 342.886 1248.16 345.028 1249.04 347.731L1255.75 368.186L1236.03 371.826L1240.21 340.744Z" fill="#DF945B"/>
<path d="M1303 387.829C1303 392.869 1298.91 396.958 1293.87 396.958C1288.83 396.958 1284.76 392.869 1284.76 387.829C1284.76 382.789 1288.85 378.714 1293.87 378.714C1298.91 378.714 1303 382.789 1303 387.829Z" fill="#CEFB6E"/>
<path d="M1227.23 340.968L1225.03 342.186C1220.76 341.836 1216.74 340.926 1217.09 336.656L1218.11 324.139L1233.58 325.413L1232.56 337.93C1232.21 342.2 1231.5 341.318 1227.23 340.968Z" fill="#CEFB6E"/>
<path d="M1217.9 325.651C1217.9 325.651 1220.03 334.92 1227.81 334.598C1234.62 334.304 1233.98 324.139 1233.98 324.139L1217.9 325.651Z" fill="#F4BE9A"/>
<path d="M1226.48 331.308L1225.17 331.168C1218.59 330.454 1213.83 324.545 1214.53 317.951L1215.34 310.446C1216.05 303.866 1221.96 299.106 1228.56 299.806L1229.87 299.946C1236.45 300.66 1241.21 306.568 1240.51 313.162L1239.7 320.667C1238.99 327.247 1233.08 332.008 1226.48 331.308Z" fill="#CEFB6E"/>
<path d="M1223.81 324.553C1225.91 322.92 1230.81 320.633 1233.61 324.553" stroke="#F59656" stroke-width="1.40009"/>
<path d="M1202.01 367.346L1207 361.465" stroke="#CE804A" stroke-width="1.07709" stroke-miterlimit="10" stroke-linecap="round" stroke-linejoin="round"/>
<path d="M1240.65 370.972L1241.41 358.833" stroke="#CE804A" stroke-width="1.07709" stroke-miterlimit="10" stroke-linecap="round" stroke-linejoin="round"/>
<path d="M1227.23 340.968L1217.4 335.032C1213.2 333.282 1210.52 337.342 1210.52 337.342L1222.23 348.823L1227.23 340.968Z" fill="#EDA472"/>
<path d="M1227.23 340.968L1231.99 348.333L1236.75 339.666C1236.75 339.666 1234.87 336.712 1232.31 337.398L1227.23 340.968Z" fill="#EDA472"/>
<path d="M1216.12 316.159H1220.14L1220.93 311.748C1220.93 311.748 1225.13 309.494 1224.32 305.14C1224.32 305.14 1242 311.482 1244.76 304.426C1248.4 295.115 1235.19 292.805 1224.32 293.071C1213.44 293.323 1214.22 307.212 1214.22 307.212L1216.12 316.159Z" fill="#1C2226"/>
<path d="M1218.48 315.277C1218.22 317.629 1216.11 319.323 1213.76 319.071C1211.41 318.819 1209.71 316.705 1209.96 314.353C1210.22 312.001 1212.33 310.307 1214.68 310.559C1217.03 310.811 1218.73 312.925 1218.48 315.277Z" fill="#CEFB6E"/>
<ellipse cx="1233.61" cy="314.053" rx="1.40009" ry="2.80018" fill="#CF621A"/>
<path d="M1232.21 309.852C1233.61 311.952 1234.31 313.353 1237.11 313.353" stroke="#F59656" stroke-width="1.40009"/>
<path d="M1232.21 309.852C1233.61 311.952 1234.31 313.353 1237.11 313.353" stroke="#F59656" stroke-width="1.40009"/>
<ellipse cx="1226.61" cy="314.053" rx="1.40009" ry="2.80018" fill="#CF621A"/>
<path d="M1227.31 309.852C1225.91 311.952 1225.21 313.353 1222.41 313.353" stroke="#F59656" stroke-width="1.40009"/>
<path d="M1231.33 279.062L1249.07 287.933L1238.49 291.687V301.24C1233.03 304.993 1228.6 306.017 1221.78 301.24C1221.78 295.44 1221.43 292.028 1221.43 292.028L1209.15 286.228L1231.33 279.062Z" fill="#170F49"/>
<path d="M1238.49 291.687L1229.62 295.44L1221.43 292.028M1238.49 291.687L1249.07 287.933L1231.33 279.062L1209.15 286.228L1221.43 292.028M1238.49 291.687V301.24C1233.03 304.993 1228.6 306.017 1221.78 301.24C1221.78 295.44 1221.43 292.028 1221.43 292.028" stroke="white" stroke-width="0.682382"/>
<path d="M966.705 195.206C966.705 195.206 962.799 195.514 962.463 200.918C962.127 206.322 962.099 222.003 969.435 222.969C976.772 223.935 971.493 197.208 971.493 197.208L966.705 195.206Z" fill="#1C2226"/>
<path d="M992.186 200.05C992.186 200.05 995.155 208.324 989.232 209.836C983.296 211.348 984.402 199.35 984.402 199.35L992.186 200.05Z" fill="#1C2226"/>
<path d="M958.444 252.021L940.089 277.894L941.111 275.472L932.641 313.443L923.204 311.679L929.042 273.218C929.168 272.378 929.49 271.622 929.939 270.978L930.065 270.796L948.42 244.922L958.444 252.021Z" fill="#CEFB6E"/>
<path d="M925.613 325.092C920.783 323.65 918.053 318.553 919.495 313.737C920.937 308.907 926.033 306.177 930.849 307.619C935.68 309.061 938.41 314.157 936.968 318.973C935.526 323.79 930.443 326.534 925.613 325.092Z" fill="#CEFB6E"/>
<path d="M998.179 251.139L1009.79 286.617L1003.56 282.389L1041.36 281.367L1041.96 290.958L1004.33 294.668C1001.53 294.948 999.005 293.212 998.165 290.65L998.095 290.44L986.488 254.961L998.179 251.139Z" fill="#CEFB6E"/>
<path d="M996.121 432.605L1001.81 448.272L1010.12 440.795L1004.82 428.236L996.121 432.605Z" fill="#CEFB6E"/>
<path d="M998.515 444.645C998.515 443.875 999.173 443.371 999.831 443.651C1001.12 444.197 1003.26 444.673 1005.8 443.539C1008.44 442.349 1008.93 440.403 1008.93 439.115C1008.93 438.443 1009.41 437.939 1010.02 438.023L1029.39 440.809C1030.56 440.977 1031.67 441.663 1032.45 442.713C1033.19 443.693 1032.84 445.135 1031.81 445.443L1002.9 454.236C1001.76 454.586 1000.53 453.76 1000.19 452.444L998.557 445.975C998.529 445.863 998.515 445.751 998.515 445.653V444.645Z" fill="#1F252A"/>
<path d="M920.516 421.964L914.216 434.299L921.552 440.571L929.477 425.772L920.516 421.964Z" fill="#CEFB6E"/>
<path d="M912.899 431.582C913.487 431.092 914.3 431.26 914.51 431.946C914.93 433.29 915.938 435.222 918.458 436.426C921.076 437.673 922.882 436.776 923.862 435.95C924.38 435.516 925.08 435.558 925.402 436.076L935.819 452.64C936.449 453.648 936.645 454.922 936.351 456.196C936.085 457.4 934.769 458.058 933.845 457.47L908.419 441.117C907.425 440.473 907.243 439.003 908.027 437.897L911.905 432.464C911.975 432.38 912.045 432.296 912.129 432.226L912.899 431.582Z" fill="#1F252A"/>
<path d="M989.694 306.26L964.829 375.243L929.631 433.57L913.936 425.814L945.228 367.668L962.393 309.508L989.694 306.26Z" fill="#092330"/>
<path d="M951.276 307.282C951.276 307.282 946.572 316.173 953.88 330.384L976.576 373.689L993.867 439.325L1011.05 433.332L994.609 366.954L976.842 315.165L989.709 306.274L951.276 307.282Z" fill="#0C2C40"/>
<path d="M972.683 230.642L953.32 234.618C951.038 235.08 949.022 236.396 947.664 238.286L935.343 255.451L951.808 266.218L945.871 313.219C945.871 313.219 952.578 333.744 993.488 317.377C993.488 317.377 989.96 278.427 992.326 253.057L991.122 236.354L972.683 230.642Z" fill="#DF945B"/>
<path d="M991.136 236.34L994.356 237.516C997.017 238.482 999.089 240.624 999.971 243.326L1006.68 263.782L986.964 267.422L991.136 236.34Z" fill="#DF945B"/>
<path d="M1053.93 283.425C1053.93 288.465 1049.84 292.553 1044.8 292.553C1039.76 292.553 1035.69 288.465 1035.69 283.425C1035.69 278.384 1039.78 274.31 1044.8 274.31C1049.84 274.31 1053.93 278.384 1053.93 283.425Z" fill="#CEFB6E"/>
<path d="M978.158 236.564L975.96 237.782C971.69 237.432 967.671 236.522 968.021 232.252L969.043 219.735L984.514 221.009L983.492 233.526C983.142 237.796 982.428 236.914 978.158 236.564Z" fill="#CEFB6E"/>
<path d="M968.833 221.247C968.833 221.247 970.961 230.516 978.746 230.194C985.55 229.9 984.906 219.735 984.906 219.735L968.833 221.247Z" fill="#F4BE9A"/>
<path d="M977.416 226.903L976.1 226.763C969.519 226.049 964.759 220.141 965.459 213.546L966.271 206.042C966.985 199.462 972.893 194.701 979.488 195.401L980.804 195.541C987.384 196.255 992.145 202.164 991.445 208.758L990.632 216.263C989.918 222.843 984.01 227.603 977.416 226.903Z" fill="#CEFB6E"/>
<path d="M974.743 220.149C976.843 218.516 981.744 216.229 984.544 220.149" stroke="#F59656" stroke-width="1.40009"/>
<path d="M952.942 262.941L957.927 257.061" stroke="#CE804A" stroke-width="1.07709" stroke-miterlimit="10" stroke-linecap="round" stroke-linejoin="round"/>
<path d="M991.585 266.568L992.341 254.429" stroke="#CE804A" stroke-width="1.07709" stroke-miterlimit="10" stroke-linecap="round" stroke-linejoin="round"/>
<path d="M978.158 236.564L968.329 230.627C964.129 228.877 961.455 232.938 961.455 232.938L973.16 244.418L978.158 236.564Z" fill="#EDA472"/>
<path d="M978.157 236.564L982.917 243.929L987.678 235.262C987.678 235.262 985.802 232.308 983.24 232.994L978.157 236.564Z" fill="#EDA472"/>
<path d="M967.055 211.754H971.074L971.858 207.344C971.858 207.344 976.058 205.09 975.246 200.736C975.246 200.736 992.929 207.078 995.687 200.022C999.327 190.711 986.124 188.401 975.246 188.667C964.367 188.919 965.151 202.808 965.151 202.808L967.055 211.754Z" fill="#1C2226"/>
<path d="M969.407 210.873C969.155 213.225 967.04 214.919 964.688 214.667C962.336 214.415 960.642 212.301 960.894 209.948C961.146 207.596 963.26 205.902 965.612 206.154C967.964 206.406 969.659 208.52 969.407 210.873Z" fill="#CEFB6E"/>
<ellipse cx="984.544" cy="209.648" rx="1.40009" ry="2.80018" fill="#CF621A"/>
<path d="M983.144 205.448C984.544 207.548 985.244 208.948 988.044 208.948" stroke="#F59656" stroke-width="1.40009"/>
<path d="M983.144 205.448C984.544 207.548 985.244 208.948 988.044 208.948" stroke="#F59656" stroke-width="1.40009"/>
<ellipse cx="977.544" cy="209.648" rx="1.40009" ry="2.80018" fill="#CF621A"/>
<path d="M978.243 205.448C976.843 207.548 976.143 208.948 973.343 208.948" stroke="#F59656" stroke-width="1.40009"/>
<path d="M982.259 174.658L1000 183.529L989.424 187.282V196.835C983.965 200.588 979.53 201.612 972.706 196.835C972.706 191.035 972.365 187.623 972.365 187.623L960.082 181.823L982.259 174.658Z" fill="#170F49"/>
<path d="M989.424 187.282L980.554 191.035L972.365 187.623M989.424 187.282L1000 183.529L982.259 174.658L960.082 181.823L972.365 187.623M989.424 187.282V196.835C983.965 200.588 979.53 201.612 972.706 196.835C972.706 191.035 972.365 187.623 972.365 187.623" stroke="white" stroke-width="0.682382"/>
<path d="M905.682 59.5166L655.339 81.8779L509.71 65.8144L783.125 41.3922L905.682 59.5166Z" fill="#B1B1B1"/>
<path d="M509.71 65.8145L655.339 81.8779L686.614 432.012L539.954 404.412L509.71 65.8145Z" fill="#616161"/>
<path fill-rule="evenodd" clip-rule="evenodd" d="M655.34 81.8779L905.683 59.5166L837.947 148.929L838.085 155.309C823.542 145.564 805.694 140.545 786.9 142.224C743.256 146.122 711.035 184.663 714.933 228.308L732.761 427.89L843.737 417.977L843.748 418.47L686.615 432.012L655.34 81.8779Z" fill="#8E8E8E"/>
<path d="M741.829 123.395C740.983 123.534 740.149 123.537 739.326 123.403C738.509 123.26 737.769 122.989 737.104 122.589C736.438 122.182 735.921 121.65 735.55 120.992L737.903 119.662C738.053 119.937 738.304 120.169 738.657 120.358C739.01 120.547 739.424 120.677 739.9 120.749C740.376 120.82 740.873 120.813 741.39 120.728C741.922 120.641 742.405 120.479 742.837 120.243C743.276 119.999 743.614 119.708 743.85 119.369C744.085 119.024 744.17 118.654 744.106 118.261C744.04 117.86 743.836 117.557 743.496 117.351C743.154 117.137 742.737 116.993 742.245 116.916C741.754 116.84 741.254 116.802 740.745 116.804C739.631 116.815 738.616 116.716 737.698 116.507C736.781 116.299 736.02 115.926 735.415 115.39C734.818 114.852 734.438 114.091 734.276 113.107C734.124 112.181 734.257 111.329 734.675 110.549C735.094 109.769 735.704 109.115 736.508 108.586C737.312 108.057 738.217 107.71 739.222 107.545C740.06 107.407 740.891 107.405 741.714 107.539C742.537 107.673 743.281 107.944 743.947 108.351C744.62 108.757 745.142 109.292 745.513 109.957L743.148 111.278C742.998 111.003 742.747 110.771 742.394 110.582C742.041 110.393 741.627 110.267 741.153 110.202C740.677 110.131 740.18 110.138 739.663 110.223C739.144 110.301 738.666 110.465 738.228 110.717C737.797 110.96 737.459 111.251 737.216 111.591C736.972 111.93 736.881 112.289 736.944 112.668C737.024 113.157 737.219 113.502 737.53 113.706C737.847 113.908 738.245 114.03 738.724 114.071C739.201 114.105 739.728 114.123 740.304 114.125C741.351 114.118 742.339 114.232 743.269 114.469C744.198 114.705 744.978 115.097 745.607 115.645C746.234 116.185 746.623 116.911 746.773 117.822C746.925 118.748 746.796 119.603 746.387 120.389C745.976 121.168 745.368 121.822 744.565 122.351C743.761 122.879 742.849 123.228 741.829 123.395ZM756.79 120.935C755.755 121.106 754.748 121.062 753.77 120.803C752.791 120.538 751.895 120.097 751.083 119.482C750.278 118.866 749.601 118.113 749.05 117.223C748.506 116.325 748.144 115.329 747.964 114.236C747.783 113.135 747.807 112.076 748.036 111.058C748.272 110.031 748.673 109.101 749.239 108.266C749.812 107.424 750.52 106.724 751.364 106.166C752.206 105.601 753.145 105.233 754.18 105.063C755.419 104.859 756.607 104.959 757.744 105.364C758.879 105.761 759.868 106.38 760.71 107.222L758.537 108.893C758.02 108.432 757.414 108.094 756.72 107.878C756.033 107.662 755.333 107.613 754.619 107.73C753.948 107.84 753.34 108.082 752.796 108.456C752.25 108.823 751.795 109.287 751.43 109.848C751.065 110.403 750.811 111.021 750.669 111.703C750.525 112.378 750.513 113.076 750.631 113.797C750.751 114.526 750.987 115.187 751.339 115.78C751.698 116.372 752.14 116.876 752.665 117.291C753.189 117.699 753.765 117.994 754.394 118.175C755.028 118.347 755.681 118.378 756.351 118.268C757.08 118.148 757.731 117.877 758.305 117.453C758.886 117.021 759.347 116.503 759.689 115.9L762.285 116.799C761.755 117.859 761.017 118.762 760.069 119.509C759.122 120.256 758.029 120.732 756.79 120.935ZM771.31 102.538L773.977 102.099L776.493 117.404L773.826 117.842L772.697 110.977L766.357 112.02L767.486 118.885L764.819 119.323L762.302 104.019L764.969 103.581L765.918 109.352L772.259 108.31L771.31 102.538ZM786.276 116.087C785.241 116.257 784.235 116.213 783.256 115.955C782.277 115.689 781.381 115.249 780.569 114.634C779.757 114.019 779.076 113.267 778.525 112.377C777.974 111.479 777.608 110.484 777.428 109.391C777.248 108.298 777.277 107.242 777.513 106.222C777.749 105.195 778.153 104.261 778.725 103.418C779.298 102.576 780.006 101.875 780.85 101.317C781.692 100.752 782.631 100.385 783.666 100.214C784.708 100.043 785.719 100.09 786.698 100.356C787.676 100.614 788.571 101.051 789.383 101.666C790.196 102.281 790.874 103.037 791.418 103.936C791.969 104.826 792.334 105.817 792.514 106.911C792.694 108.004 792.666 109.064 792.43 110.09C792.201 111.109 791.8 112.039 791.228 112.882C790.655 113.724 789.948 114.428 789.105 114.993C788.261 115.551 787.318 115.916 786.276 116.087ZM785.837 113.42C786.508 113.31 787.115 113.067 787.66 112.693C788.205 112.319 788.66 111.855 789.026 111.301C789.397 110.739 789.655 110.12 789.798 109.445C789.949 108.769 789.965 108.071 789.846 107.349C789.728 106.628 789.489 105.971 789.13 105.379C788.769 104.779 788.323 104.276 787.792 103.87C787.269 103.462 786.689 103.168 786.053 102.988C785.425 102.807 784.775 102.771 784.105 102.882C783.434 102.992 782.826 103.234 782.282 103.608C781.737 103.982 781.279 104.45 780.907 105.013C780.542 105.567 780.284 106.182 780.133 106.858C779.989 107.533 779.977 108.231 780.095 108.952C780.215 109.681 780.455 110.342 780.814 110.934C781.173 111.526 781.616 112.029 782.14 112.445C782.671 112.851 783.251 113.145 783.88 113.326C784.514 113.499 785.167 113.53 785.837 113.42ZM802.93 113.349C801.895 113.519 800.888 113.475 799.91 113.217C798.931 112.951 798.035 112.511 797.223 111.896C796.411 111.281 795.729 110.528 795.179 109.638C794.627 108.741 794.262 107.746 794.082 106.653C793.902 105.56 793.93 104.503 794.167 103.484C794.402 102.457 794.806 101.523 795.379 100.68C795.951 99.8373 796.659 99.137 797.503 98.5791C798.346 98.014 799.285 97.6463 800.32 97.4761C801.362 97.3048 802.373 97.3519 803.352 97.6175C804.33 97.8758 805.225 98.3125 806.037 98.9274C806.849 99.5423 807.528 100.299 808.072 101.198C808.623 102.088 808.988 103.079 809.167 104.172C809.347 105.265 809.319 106.325 809.084 107.352C808.855 108.37 808.454 109.301 807.881 110.143C807.309 110.986 806.601 111.69 805.759 112.255C804.915 112.813 803.972 113.178 802.93 113.349ZM802.491 110.682C803.161 110.571 803.769 110.329 804.314 109.955C804.859 109.581 805.314 109.117 805.679 108.563C806.051 108 806.308 107.382 806.452 106.707C806.603 106.031 806.619 105.332 806.5 104.611C806.381 103.889 806.143 103.233 805.783 102.64C805.423 102.041 804.977 101.538 804.446 101.131C803.922 100.723 803.343 100.43 802.707 100.25C802.078 100.069 801.429 100.033 800.758 100.143C800.088 100.254 799.48 100.496 798.935 100.87C798.391 101.244 797.932 101.712 797.561 102.275C797.195 102.829 796.937 103.444 796.786 104.12C796.643 104.795 796.63 105.493 796.749 106.214C796.869 106.943 797.108 107.603 797.468 108.195C797.827 108.788 798.269 109.291 798.794 109.706C799.325 110.113 799.905 110.407 800.533 110.588C801.168 110.761 801.82 110.792 802.491 110.682ZM812.41 111.498L809.893 96.1939L812.56 95.7553L814.638 108.392L821.011 107.344L821.45 110.012L812.41 111.498ZM829.41 108.995C828.565 109.134 827.73 109.136 826.907 109.002C826.091 108.859 825.35 108.588 824.685 108.189C824.02 107.782 823.502 107.249 823.132 106.592L825.484 105.262C825.634 105.536 825.885 105.768 826.238 105.957C826.591 106.146 827.006 106.276 827.481 106.348C827.957 106.419 828.454 106.413 828.971 106.327C829.503 106.24 829.986 106.078 830.418 105.843C830.857 105.598 831.195 105.307 831.431 104.969C831.666 104.623 831.751 104.254 831.687 103.86C831.621 103.459 831.418 103.156 831.077 102.95C830.735 102.737 830.318 102.592 829.827 102.516C829.335 102.439 828.835 102.402 828.326 102.403C827.213 102.414 826.197 102.315 825.28 102.107C824.362 101.898 823.601 101.526 822.996 100.989C822.399 100.451 822.019 99.6901 821.858 98.7063C821.705 97.7807 821.838 96.9281 822.257 96.1482C822.675 95.3684 823.286 94.7141 824.089 94.1852C824.893 93.6564 825.798 93.3093 826.804 93.1439C827.642 93.0061 828.472 93.0043 829.295 93.1384C830.118 93.2726 830.862 93.5431 831.528 93.9501C832.201 94.3559 832.723 94.8913 833.095 95.5563L830.729 96.877C830.579 96.6023 830.328 96.3704 829.975 96.1815C829.622 95.9925 829.208 95.8659 828.734 95.8017C828.258 95.7303 827.761 95.7371 827.244 95.8222C826.725 95.9 826.247 96.0647 825.81 96.3163C825.378 96.5594 825.04 96.8506 824.797 97.1901C824.553 97.5295 824.463 97.8887 824.525 98.2677C824.605 98.756 824.801 99.1018 825.111 99.3053C825.429 99.5075 825.827 99.6292 826.305 99.6703C826.782 99.7042 827.309 99.7223 827.886 99.7248C828.932 99.7173 829.92 99.8318 830.85 100.068C831.78 100.305 832.559 100.697 833.188 101.244C833.816 101.785 834.204 102.511 834.354 103.422C834.506 104.347 834.378 105.203 833.968 105.989C833.557 106.767 832.95 107.421 832.146 107.95C831.342 108.479 830.43 108.827 829.41 108.995Z" fill="#C7BCBC"/>
<rect x="963" y="723" width="712" height="383" transform="rotate(-90 963 723)" fill="url(#paint0_linear_1030_3954)"/>
<rect x="1146" y="723" width="712" height="200" transform="rotate(-90 1146 723)" fill="url(#paint1_linear_1030_3954)"/>
<rect x="1346" y="723" width="712" height="246" transform="rotate(-90 1346 723)" fill="white"/>
<rect width="712" height="383" transform="matrix(0 -1 -1 0 499 712)" fill="url(#paint2_linear_1030_3954)"/>
<rect width="712" height="200" transform="matrix(0 -1 -1 0 316 712)" fill="url(#paint3_linear_1030_3954)"/>
<rect width="712" height="246" transform="matrix(0 -1 -1 0 116 712)" fill="white"/>
<defs>
<linearGradient id="paint0_linear_1030_3954" x1="1319" y1="723" x2="1319" y2="1106" gradientUnits="userSpaceOnUse">
<stop stop-color="white" stop-opacity="0"/>
<stop offset="1" stop-color="white"/>
</linearGradient>
<linearGradient id="paint1_linear_1030_3954" x1="1502" y1="723" x2="1502" y2="923" gradientUnits="userSpaceOnUse">
<stop stop-color="white" stop-opacity="0"/>
<stop offset="1" stop-color="white"/>
</linearGradient>
<linearGradient id="paint2_linear_1030_3954" x1="356" y1="0" x2="356" y2="383" gradientUnits="userSpaceOnUse">
<stop stop-color="white" stop-opacity="0"/>
<stop offset="1" stop-color="white"/>
</linearGradient>
<linearGradient id="paint3_linear_1030_3954" x1="356" y1="0" x2="356" y2="200" gradientUnits="userSpaceOnUse">
<stop stop-color="white" stop-opacity="0"/>
<stop offset="1" stop-color="white"/>
</linearGradient>
</defs>
</svg>
