<svg width="74" height="62" viewBox="0 0 74 62" fill="none" xmlns="http://www.w3.org/2000/svg">
<path d="M72.0001 7.82941L47.2921 47.9831" stroke="#FF0000" stroke-width="2.62367" stroke-linecap="round"/>
<path d="M2.29079 7.82961L25.9999 47.0002" stroke="#FF0000" stroke-width="2.62367" stroke-linecap="round"/>
<path d="M37.0777 1.97085L36.5128 59.2368" stroke="#FF0000" stroke-width="2.62367" stroke-linecap="round"/>
<path d="M52.9095 11.6189L42.0385 45.9465" stroke="#FF0000" stroke-width="2.62367" stroke-linecap="round"/>
<path d="M20.0383 11.6189L30.9092 45.9465" stroke="#FF0000" stroke-width="2.62367" stroke-linecap="round"/>
<path d="M61.4462 53.4755C61.4462 50.524 60.8067 47.6014 59.5643 44.8745C58.3218 42.1477 56.5007 39.67 54.205 37.5829C51.9092 35.4959 49.1838 33.8404 46.1842 32.7109C43.1847 31.5814 39.9698 31 36.7231 31C33.4764 31 30.2615 31.5814 27.262 32.7109C24.2624 33.8404 21.537 35.4959 19.2412 37.5829C16.9455 39.67 15.1244 42.1477 13.8819 44.8745C12.6395 47.6014 12 50.524 12 53.4755L20.241 53.4755C20.241 52.666 27.3921 48.23 27.7329 47.4821C28.0736 46.7342 32.3475 46.6961 32.9772 46.1237C33.6068 45.5513 33.0394 49.4568 33.8621 49.147C34.6848 48.8372 35.7044 48.7044 36.5949 48.7044C37.4853 48.7044 38.505 48.8372 39.3276 49.147C40.1503 49.4568 38.341 47.6588 38.9707 48.2312C39.6003 48.8037 39.7415 45.3758 40.0823 46.1237C40.2453 46.4814 43.5833 46.9309 46.5 48.5C49.6812 50.2114 52.456 53.0532 52.456 53.4755L61.4462 53.4755Z" fill="#FFDF36"/>
<path d="M19.98 53.6847C25.4001 59.1558 39.6729 66.8155 53.4038 53.6847C47.6826 47.8488 32.9882 39.6785 19.98 53.6847Z" stroke="#FF0000" stroke-width="1.39266"/>
<circle cx="36.4621" cy="53.443" r="7.49185" fill="#FF0000"/>
</svg>
