<svg width="74" height="63" viewBox="0 0 74 63" fill="none" xmlns="http://www.w3.org/2000/svg">
<path d="M72.0001 8.82941L47.2921 48.9831" stroke="#FF0000" stroke-width="2.62367" stroke-linecap="round"/>
<path d="M2.00008 10.891L26.0783 48.4348" stroke="#FF0000" stroke-width="2.62367" stroke-linecap="round"/>
<path d="M36.7037 1.99989L36.2378 49.2367" stroke="#FF0000" stroke-width="2.62367" stroke-linecap="round"/>
<path d="M20.6959 12.5228L29.3635 47.2588" stroke="#FF0000" stroke-width="2.62367" stroke-linecap="round"/>
<path d="M52.9095 12.6189L42.0385 46.9465" stroke="#FF0000" stroke-width="2.62367" stroke-linecap="round"/>
<path d="M61.4462 54.4755C61.4462 51.524 60.8067 48.6014 59.5643 45.8745C58.3218 43.1477 56.5007 40.67 54.205 38.5829C51.9092 36.4959 49.1838 34.8404 46.1842 33.7109C43.1847 32.5814 39.9698 32 36.7231 32C33.4764 32 30.2615 32.5814 27.262 33.7109C24.2624 34.8404 21.537 36.4959 19.2412 38.5829C16.9455 40.67 15.1244 43.1477 13.8819 45.8745C12.6395 48.6014 12 51.524 12 54.4755L20.241 54.4755C20.241 53.666 27.3921 49.23 27.7329 48.4821C28.0736 47.7342 32.3475 47.6961 32.9772 47.1237C33.6068 46.5513 33.0394 50.4568 33.8621 50.147C34.6848 49.8372 35.7044 49.7044 36.5949 49.7044C37.4853 49.7044 38.505 49.8372 39.3276 50.147C40.1503 50.4568 38.341 48.6588 38.9707 49.2312C39.6003 49.8037 39.7415 46.3758 40.0823 47.1237C40.2453 47.4814 43.5833 47.9309 46.5 49.5C49.6812 51.2114 52.456 54.0532 52.456 54.4755L61.4462 54.4755Z" fill="#FFDF36"/>
<path d="M19.98 54.6847C25.4001 60.1558 39.6729 67.8155 53.4038 54.6847C47.6826 48.8488 32.9882 40.6785 19.98 54.6847Z" stroke="#FF0000" stroke-width="1.39266"/>
<circle cx="36.4621" cy="54.443" r="7.49185" fill="#FF0000"/>
</svg>
