<svg width="85" height="44" viewBox="0 0 85 44" fill="none" xmlns="http://www.w3.org/2000/svg">
<path d="M79.7831 2.71191C81.5447 2.71191 82.8545 3.34428 83.7128 4.609C84.571 5.82856 85.0001 7.34172 85.0001 9.14847C85.0001 11.9489 84.0289 14.4558 82.0867 16.6691C80.1896 18.8372 77.4795 20.531 73.9563 21.7506C70.4783 22.9701 66.4809 23.5799 61.964 23.5799C61.4671 23.5799 61.0606 23.4218 60.7444 23.1056C60.4282 22.7443 60.2701 22.3378 60.2701 21.8861V17.8209C60.2701 17.324 60.4282 16.9175 60.7444 16.6013C61.0606 16.2851 61.4671 16.1271 61.964 16.1271C63.048 16.1271 63.8611 16.1045 64.4031 16.0593L64.4708 15.9238C67.0003 11.6328 69.5975 8.35802 72.2625 6.09958C74.9726 3.84113 77.4795 2.71191 79.7831 2.71191ZM77.615 10.097C76.3051 10.097 74.8145 10.5261 73.1432 11.3843C71.472 12.2425 69.8459 13.7557 68.265 15.9238C73.4143 15.6076 77.7279 14.8172 81.2059 13.5524C81.1155 12.5135 80.7542 11.6779 80.1218 11.0456C79.5346 10.4132 78.699 10.097 77.615 10.097Z" fill="#E83526"/>
<path d="M61.993 16.3914C62.3996 16.3914 62.7835 16.5721 63.1448 16.9334C63.5062 17.2496 63.6869 17.6335 63.6869 18.0852V22.1504C63.6869 22.6021 63.5288 23.0086 63.2126 23.37C62.8964 23.6862 62.4899 23.8442 61.993 23.8442C60.2766 23.8442 58.9893 23.6184 58.1311 23.1667C57.2729 22.715 56.7083 22.173 56.4373 21.5406C56.2114 20.9083 56.0533 20.1178 55.963 19.1693C55.8727 18.2659 55.7146 17.611 55.4887 17.2044C55.2629 16.7979 54.766 16.5947 53.9982 16.5947C52.1914 16.5947 50.1136 17.0463 47.7649 17.9497C49.0748 18.5369 50.1814 19.1467 51.0848 19.7791C52.0785 20.4566 52.5753 21.1567 52.5753 21.8794C52.5753 22.4666 52.214 23.4377 51.4913 24.7928C50.5879 26.5092 49.7749 27.8191 49.0522 28.7225C48.3295 29.5807 47.3358 30.2808 46.071 30.8228C44.8063 31.3197 43.0899 31.5681 40.9218 31.5681H34.2142C33.7625 31.5681 33.3786 31.41 33.0624 31.0938C32.7011 30.7325 32.5204 30.326 32.5204 29.8743V25.8768C32.5204 25.38 32.6785 24.9735 32.9947 24.6573C33.3108 24.2959 33.7174 24.1153 34.2142 24.1153H40.041C42.8415 24.1153 44.8966 24.0701 46.2065 23.9798C42.9544 22.3988 39.7248 21.36 36.5178 20.8631V18.2885C39.5441 15.5332 42.8866 13.4328 46.5453 11.9874C50.204 10.542 53.5465 9.81934 56.5728 9.81934C57.8375 9.81934 58.786 9.97743 59.4184 10.2936C60.0959 10.5646 60.5702 11.0163 60.8412 11.6487C61.1122 12.2359 61.3381 13.1167 61.5188 14.291L61.8575 16.3914H61.993Z" fill="#E83526"/>
<path d="M34.2401 24.116C34.7369 24.116 35.1435 24.2741 35.4596 24.5903C35.7758 24.9065 35.9339 25.313 35.9339 25.8099V29.8751C35.9339 30.3268 35.7758 30.7333 35.4596 31.0946C35.1435 31.4108 34.7369 31.5689 34.2401 31.5689H30.5136C30.062 35.7696 28.8876 38.8637 26.9905 40.8511C25.1386 42.8385 22.2478 43.8322 18.3181 43.8322C15.7886 43.8322 12.1074 43.3805 7.2743 42.4772L7.20654 41.0543C15.8338 38.2539 22.5188 35.3857 27.2615 32.4497L27.126 31.5689H24.3481C22.5414 31.5689 21.2315 31.2075 20.4184 30.4848C19.6054 29.7621 19.1989 28.791 19.1989 27.5715C19.1989 26.7132 19.3795 25.7873 19.7409 24.7936C21.1863 20.9091 22.9479 18.9668 25.0256 18.9668C26.1097 18.9668 27.1034 19.4185 28.0068 20.3219C28.9102 21.1801 29.6103 22.4448 30.1071 24.116H34.2401Z" fill="#E83526"/>
<path d="M5.55576 31.5687C3.97485 31.5687 2.64237 31.0944 1.55832 30.1458C0.519441 29.1973 0 27.5938 0 25.3354C0 23.4834 0.36135 21.4283 1.08405 19.1698C1.85192 16.9114 2.91339 14.9917 4.26845 13.4108C5.62352 11.7847 7.18184 10.9717 8.94342 10.9717C10.6147 10.9717 11.8116 11.6718 12.5343 13.072C13.257 14.4723 13.6184 16.279 13.6184 18.4923C13.6184 21.8348 13.0086 24.8611 11.7891 27.5712C10.5695 30.2362 8.49173 31.5687 5.55576 31.5687ZM3.31991 22.422C3.31991 22.7382 3.63609 23.0995 4.26845 23.506C4.94598 23.9125 5.69127 24.1158 6.50431 24.1158C7.6787 24.1158 8.58207 23.9351 9.21444 23.5738C9.89197 23.1673 10.2307 22.8059 10.2307 22.4897C10.2307 21.4508 9.91455 20.5249 9.28219 19.7118C8.69499 18.8536 8.01746 18.4245 7.24959 18.4245C6.43655 18.4245 5.57835 18.9214 4.67497 19.9151C3.77159 20.8636 3.31991 21.6993 3.31991 22.422Z" fill="#E83526"/>
<path d="M11.9067 0.167969L15.7008 3.96215L11.9067 7.82408L8.519 4.43642L5.1991 7.82408L1.26941 3.96215L5.1991 0.167969L8.519 3.48788L11.9067 0.167969Z" fill="#E83526"/>
</svg>
