<svg width="1274" height="192" viewBox="0 0 1274 192" fill="none" xmlns="http://www.w3.org/2000/svg">
<path d="M1250.91 11.1816C1258.66 11.1816 1264.42 13.9618 1268.19 19.5221C1271.96 24.8839 1273.85 31.5364 1273.85 39.4797C1273.85 51.7918 1269.58 62.8132 1261.04 72.5437C1252.7 82.0757 1240.79 89.5226 1225.3 94.8843C1210 100.246 1202.01 104 1182.15 104C1182.15 100 1182.15 97 1182.15 97L1182.15 70C1182.15 70 1182.15 70 1183.3 69.8629L1183.59 69.2671C1194.71 50.4017 1206.13 36.0045 1217.85 26.0754C1229.76 16.1462 1240.79 11.1816 1250.91 11.1816ZM1241.38 43.6499C1235.62 43.6499 1229.07 45.5365 1221.72 49.3095C1214.37 53.0826 1207.22 59.7351 1200.27 69.2671C1222.91 67.877 1241.88 64.4018 1257.17 58.8415C1256.77 54.2741 1255.18 50.6003 1252.4 47.8202C1249.82 45.04 1246.15 43.6499 1241.38 43.6499Z" fill="#DC3412"/>
<path d="M723.151 70V94.5C723.151 94.5 723.151 102.5 723.151 104C715.604 104 709.347 103.513 705.574 101.527C701.801 99.5411 699.319 97.1581 698.127 94.3779C697.134 91.5978 696.439 88.1226 696.042 83.9524C695.645 79.9807 694.95 77.1012 693.957 75.314C692.964 73.5267 690.78 72.6331 687.404 72.6331C679.461 72.6331 670.326 74.6189 659.999 78.5906C665.758 81.1722 670.624 83.8531 674.595 86.6332C678.964 89.612 681.149 92.69 681.149 95.8673C681.149 98.4489 679.56 102.718 676.383 108.676C672.411 116.222 668.836 121.981 665.659 125.953C662.482 129.726 658.113 132.804 652.553 135.187C646.992 137.371 639.446 138.463 629.914 138.463L596.151 138C596.15 133 596.151 118 596.151 118C596.151 118 596.151 109 596.151 105H626.151C638.463 105 647.389 105.499 653.148 105.101C638.85 98.151 624.652 93.5836 610.552 91.3992V80.08C623.857 67.9664 638.553 58.7323 654.638 52.3777C670.723 46.023 685.418 42.8457 698.723 42.8457C704.283 42.8457 708.454 43.5407 711.234 44.9308C714.212 46.1223 716.298 48.1081 717.489 50.8883C718.681 53.4699 719.674 57.3422 720.468 62.5054L721.651 70H723.151Z" fill="#DC3412"/>
<path d="M118.813 178.856C127.154 170.118 132.165 156.466 134.15 137.998L137.15 138.047V104.998H132.65C130.466 97.6505 127.253 92.3731 123.281 88.6001C119.31 84.6284 114.941 82.6426 110.175 82.6426C101.04 82.6426 93.2954 91.1816 86.9407 108.26C85.3521 112.629 84.5577 116.7 84.5577 120.473C84.5577 125.834 86.345 130.104 89.9195 133.281C93.494 136.459 99.2529 138.047 107.196 138.047H119.409L120.005 141.92C99.1536 154.827 69.7633 167.437 31.834 179.75L32.1319 186.005C53.3802 189.977 69.5647 191.962 80.6854 191.962C97.9621 191.962 110.671 187.594 118.813 178.856Z" fill="#DC3412"/>
<path d="M24.5761 138.048C17.6257 138.048 11.7675 135.963 7.0015 131.793C2.43409 127.622 0.150391 120.573 0.150391 110.643C0.150391 102.502 1.73905 93.4661 4.91638 83.5369C8.29229 73.6078 12.959 65.168 18.9165 58.2176C24.874 51.0686 31.7251 47.4941 39.4698 47.4941C46.8174 47.4941 52.0798 50.5722 55.2571 56.7282C58.4344 62.8843 60.0231 70.8276 60.0231 80.5582C60.0231 95.2533 57.3422 108.558 51.9805 120.473C46.6188 132.19 37.484 138.048 24.5761 138.048ZM14.7462 97.8349C14.7462 99.225 16.1363 100.814 18.9165 102.601C21.8952 104.388 25.1718 105.282 28.7463 105.282C33.9095 105.282 37.8811 104.487 40.6613 102.899C43.64 101.111 45.1294 99.5228 45.1294 98.1328C45.1294 93.5653 43.7393 89.4944 40.9592 85.9199C38.3776 82.1468 35.3988 80.2603 32.0229 80.2603C28.4484 80.2603 24.6754 82.4447 20.7037 86.8135C16.7321 90.9838 14.7462 94.6576 14.7462 97.8349Z" fill="#DC3412"/>
<path d="M52.4967 0L69.1777 16.681L52.4967 33.6598L37.603 18.7661L23.0072 33.6598L5.73047 16.681L23.0072 0L37.603 14.5958L52.4967 0Z" fill="#DC3412"/>
<rect x="134.15" y="105.037" width="465" height="33" fill="#DC3412"/>
<rect x="721.15" y="70.0371" width="463" height="34" fill="#DC3412"/>
</svg>
